<mxfile host="app.diagrams.net" agent="Mozilla/5.0 (Windows NT 10.0; Win64; x64) AppleWebKit/537.36 (KHTML, like Gecko) Chrome/135.0.0.0 Safari/537.36" version="28.1.1">
  <diagram name="第 1 页" id="dMD3S8uEllPuPYDbf-0x">
    <mxGraphModel dx="1819" dy="592" grid="1" gridSize="10" guides="1" tooltips="1" connect="1" arrows="1" fold="1" page="1" pageScale="1" pageWidth="827" pageHeight="1169" math="0" shadow="0">
      <root>
        <mxCell id="0" />
        <mxCell id="1" parent="0" />
        <mxCell id="mYZ1RcpmayhiG7XBKgf2-4" style="edgeStyle=orthogonalEdgeStyle;rounded=0;sketch=1;hachureGap=4;jiggle=2;curveFitting=1;orthogonalLoop=1;jettySize=auto;html=1;fontFamily=Architects Daughter;fontSource=https%3A%2F%2Ffonts.googleapis.com%2Fcss%3Ffamily%3DArchitects%2BDaughter;" edge="1" parent="1" source="mYZ1RcpmayhiG7XBKgf2-1" target="mYZ1RcpmayhiG7XBKgf2-2">
          <mxGeometry relative="1" as="geometry" />
        </mxCell>
        <mxCell id="mYZ1RcpmayhiG7XBKgf2-1" value="开始" style="rounded=0;whiteSpace=wrap;html=1;sketch=1;hachureGap=4;jiggle=2;curveFitting=1;fontFamily=Architects Daughter;fontSource=https%3A%2F%2Ffonts.googleapis.com%2Fcss%3Ffamily%3DArchitects%2BDaughter;" vertex="1" parent="1">
          <mxGeometry x="310" y="50" width="120" height="60" as="geometry" />
        </mxCell>
        <mxCell id="mYZ1RcpmayhiG7XBKgf2-6" style="edgeStyle=orthogonalEdgeStyle;rounded=0;sketch=1;hachureGap=4;jiggle=2;curveFitting=1;orthogonalLoop=1;jettySize=auto;html=1;entryX=0.5;entryY=0;entryDx=0;entryDy=0;fontFamily=Architects Daughter;fontSource=https%3A%2F%2Ffonts.googleapis.com%2Fcss%3Ffamily%3DArchitects%2BDaughter;" edge="1" parent="1" source="mYZ1RcpmayhiG7XBKgf2-2" target="mYZ1RcpmayhiG7XBKgf2-5">
          <mxGeometry relative="1" as="geometry" />
        </mxCell>
        <mxCell id="mYZ1RcpmayhiG7XBKgf2-2" value="构建Context" style="rounded=0;whiteSpace=wrap;html=1;sketch=1;hachureGap=4;jiggle=2;curveFitting=1;fontFamily=Architects Daughter;fontSource=https%3A%2F%2Ffonts.googleapis.com%2Fcss%3Ffamily%3DArchitects%2BDaughter;" vertex="1" parent="1">
          <mxGeometry x="310" y="180" width="120" height="60" as="geometry" />
        </mxCell>
        <mxCell id="mYZ1RcpmayhiG7XBKgf2-5" value="执行订单处理器" style="rounded=0;whiteSpace=wrap;html=1;sketch=1;hachureGap=4;jiggle=2;curveFitting=1;fontFamily=Architects Daughter;fontSource=https%3A%2F%2Ffonts.googleapis.com%2Fcss%3Ffamily%3DArchitects%2BDaughter;" vertex="1" parent="1">
          <mxGeometry x="310" y="300" width="120" height="60" as="geometry" />
        </mxCell>
        <mxCell id="mYZ1RcpmayhiG7XBKgf2-21" style="edgeStyle=orthogonalEdgeStyle;rounded=0;sketch=1;hachureGap=4;jiggle=2;curveFitting=1;orthogonalLoop=1;jettySize=auto;html=1;entryX=0;entryY=0.5;entryDx=0;entryDy=0;fontFamily=Architects Daughter;fontSource=https%3A%2F%2Ffonts.googleapis.com%2Fcss%3Ffamily%3DArchitects%2BDaughter;fillColor=#e51400;strokeColor=#B20000;" edge="1" parent="1" source="mYZ1RcpmayhiG7XBKgf2-8" target="mYZ1RcpmayhiG7XBKgf2-9">
          <mxGeometry relative="1" as="geometry" />
        </mxCell>
        <mxCell id="mYZ1RcpmayhiG7XBKgf2-8" value="1-订单状态处理器" style="rounded=0;whiteSpace=wrap;html=1;sketch=1;hachureGap=4;jiggle=2;curveFitting=1;fontFamily=Architects Daughter;fontSource=https%3A%2F%2Ffonts.googleapis.com%2Fcss%3Ffamily%3DArchitects%2BDaughter;" vertex="1" parent="1">
          <mxGeometry x="-570" y="140" width="120" height="60" as="geometry" />
        </mxCell>
        <mxCell id="mYZ1RcpmayhiG7XBKgf2-22" style="edgeStyle=orthogonalEdgeStyle;rounded=0;sketch=1;hachureGap=4;jiggle=2;curveFitting=1;orthogonalLoop=1;jettySize=auto;html=1;entryX=0;entryY=0.5;entryDx=0;entryDy=0;fontFamily=Architects Daughter;fontSource=https%3A%2F%2Ffonts.googleapis.com%2Fcss%3Ffamily%3DArchitects%2BDaughter;fillColor=#e51400;strokeColor=#B20000;" edge="1" parent="1" source="mYZ1RcpmayhiG7XBKgf2-9" target="mYZ1RcpmayhiG7XBKgf2-10">
          <mxGeometry relative="1" as="geometry" />
        </mxCell>
        <mxCell id="mYZ1RcpmayhiG7XBKgf2-9" value="2-EC处理器" style="rounded=0;whiteSpace=wrap;html=1;sketch=1;hachureGap=4;jiggle=2;curveFitting=1;fontFamily=Architects Daughter;fontSource=https%3A%2F%2Ffonts.googleapis.com%2Fcss%3Ffamily%3DArchitects%2BDaughter;" vertex="1" parent="1">
          <mxGeometry x="-360" y="140" width="120" height="60" as="geometry" />
        </mxCell>
        <mxCell id="mYZ1RcpmayhiG7XBKgf2-23" style="edgeStyle=orthogonalEdgeStyle;rounded=0;sketch=1;hachureGap=4;jiggle=2;curveFitting=1;orthogonalLoop=1;jettySize=auto;html=1;fontFamily=Architects Daughter;fontSource=https%3A%2F%2Ffonts.googleapis.com%2Fcss%3Ffamily%3DArchitects%2BDaughter;fillColor=#e51400;strokeColor=#B20000;" edge="1" parent="1" source="mYZ1RcpmayhiG7XBKgf2-10" target="mYZ1RcpmayhiG7XBKgf2-11">
          <mxGeometry relative="1" as="geometry" />
        </mxCell>
        <mxCell id="mYZ1RcpmayhiG7XBKgf2-10" value="3-销售处理器" style="rounded=0;whiteSpace=wrap;html=1;sketch=1;hachureGap=4;jiggle=2;curveFitting=1;fontFamily=Architects Daughter;fontSource=https%3A%2F%2Ffonts.googleapis.com%2Fcss%3Ffamily%3DArchitects%2BDaughter;" vertex="1" parent="1">
          <mxGeometry x="-160" y="140" width="120" height="60" as="geometry" />
        </mxCell>
        <mxCell id="mYZ1RcpmayhiG7XBKgf2-24" style="edgeStyle=orthogonalEdgeStyle;rounded=0;sketch=1;hachureGap=4;jiggle=2;curveFitting=1;orthogonalLoop=1;jettySize=auto;html=1;fontFamily=Architects Daughter;fontSource=https%3A%2F%2Ffonts.googleapis.com%2Fcss%3Ffamily%3DArchitects%2BDaughter;fillColor=#e51400;strokeColor=#B20000;" edge="1" parent="1" source="mYZ1RcpmayhiG7XBKgf2-11" target="mYZ1RcpmayhiG7XBKgf2-12">
          <mxGeometry relative="1" as="geometry" />
        </mxCell>
        <mxCell id="mYZ1RcpmayhiG7XBKgf2-11" value="4-下架商品处理器" style="rounded=0;whiteSpace=wrap;html=1;sketch=1;hachureGap=4;jiggle=2;curveFitting=1;fontFamily=Architects Daughter;fontSource=https%3A%2F%2Ffonts.googleapis.com%2Fcss%3Ffamily%3DArchitects%2BDaughter;" vertex="1" parent="1">
          <mxGeometry x="-160" y="320" width="120" height="60" as="geometry" />
        </mxCell>
        <mxCell id="mYZ1RcpmayhiG7XBKgf2-25" style="edgeStyle=orthogonalEdgeStyle;rounded=0;sketch=1;hachureGap=4;jiggle=2;curveFitting=1;orthogonalLoop=1;jettySize=auto;html=1;entryX=1;entryY=0.5;entryDx=0;entryDy=0;fontFamily=Architects Daughter;fontSource=https%3A%2F%2Ffonts.googleapis.com%2Fcss%3Ffamily%3DArchitects%2BDaughter;fillColor=#e51400;strokeColor=#B20000;" edge="1" parent="1" source="mYZ1RcpmayhiG7XBKgf2-12" target="mYZ1RcpmayhiG7XBKgf2-15">
          <mxGeometry relative="1" as="geometry" />
        </mxCell>
        <mxCell id="mYZ1RcpmayhiG7XBKgf2-12" value="5-订单类型处理器" style="rounded=0;whiteSpace=wrap;html=1;sketch=1;hachureGap=4;jiggle=2;curveFitting=1;fontFamily=Architects Daughter;fontSource=https%3A%2F%2Ffonts.googleapis.com%2Fcss%3Ffamily%3DArchitects%2BDaughter;" vertex="1" parent="1">
          <mxGeometry x="-360" y="320" width="120" height="60" as="geometry" />
        </mxCell>
        <mxCell id="mYZ1RcpmayhiG7XBKgf2-14" value="" style="shape=image;verticalLabelPosition=bottom;labelBackgroundColor=default;verticalAlign=top;aspect=fixed;imageAspect=0;image=data:image/png,iVBORw0KGgoAAAANSUhEUgAAAV0AAAEoCAIAAAB0BbWSAAAgAElEQVR4Ae19QY8cyXEuD/uD7JOMAX/HHkUCq6MPvhgG16Q4C3BhS3sxlqQG2AsJGxSf580KK8ge2ODQAywEzUGGQNKyH71aSAcOtaZlQT5ou0le/JwRGV9GRmZ1V1fVdFd1h7CgsrMzIyO/ivgyMnsq8tL89duh/vv8xjv/8/Y31f8+v/HOUKNsVs7s2fH+0fPN6uCjD4jA7NnxBx/ewX/7B2fn8zcDym8p6unR7cNnGxi3Sb1LTV90qP/ZJ5c/v/FO9b+ffXK5g8ARdpnNnx/eun339NUIdXOVJorA+emD/VvHTzfBR02IDckLTWN4vSPgCEwLAeeFwbZR03rwrq0jsAAB5wXnBUfAEbAIOC9YRBaQqH/lCOwIAs4LzguOgCNgEXBesIjsyILg03QEFiDgvOC84Ag4AhYB5wWLyAIS9a8cgR1BwHnBecERcAQsAs4LFpEdWRB8mo7AAgScF5wXHAFHwCLgvGARWUCi/pUjsCMIOC+MixdmL8/u3npw8rL+at1s/urkoMuLd+E10IY3BRePuE1uMPv5R9+49Eff+Xkd24nOdParX7z7zbNPfjXwpJwXNsALeCmz9PPFXlq2b2nN4IVSwuIRS/nU/jZeTC5fLcXs0Fd30W8T4x1n/TZh2f389AGG45fcu72AuDZemM1/9N6lS9/47r8lBKjmUvhfR2J6dOfkD+78GgLnr98+/8HZH1z7xf/75Rfr4IWvXv1Wj83laqVu9vXs9eGnx3/2/l/+6ft/cfjp8e+/nvO3v/96fvjp8Z++/xd/9v5f/m/h69lr3Wtny0jiUHrpYkxWbQ9pC3gBbcpCOVzpkE+PbsOruf3+rePDo/QqOvs500FQQ14ohkoYt9p9/vrtUyUNjceWsIAVm83/7TvfuHTp0rfeey/xAlcyTcx++K1Ll7712eqvVM/Onv7BN58+ko6z+e8+uXZy7WzgMAHw2njhe598//Mf/xRfz1+//fzHP/3eJ9/XNWX58NPjOwd//R//+dv/+M/f3jn464/v3v/zmx/9+c2PPr57X9f/L3eUfXew5vz0AS+zpeMtRmPV9pAGJ1xJgmmchFAuE/b/w2dvAlnkuWq0JxMvxOQCVA67JJLcuF3S3ZkXdJTBkwKGmOOoCp9pXgj7l8gFzBHv/XBlf57Nf33tm4kIaPuQaGLwuVte+M1v//v29/4G1PD5j396+3t/85vf/veCgfdv/dUf/8m3v3r1X9zmq1f/9cd/8u3n//7L5//+y7J+/9ZfQdRs/uWjK3sPH58+3Nu7cfnyjcuXHz4OeOn661fuv5i/mc1Tm+t7+08Sa6b6j+99SX1tzfz12xf3rrJ89C1rqkOUmpQdMZ3567f/8t0/olgx/aODSbSETRvHC/qH84XgRdGFTmM2oZJHODhnh+Q1mYNtBPa68oMP7/D5woIR56/fImLfv3X8ZBYy0LBM7stLtNUwOPnzQ4kCeI7GsdN8JdtVEHJwdnIU5UPnsjsrHNVQo0AmUC0L6nEEt6R9RCioenpS7/2ILCcE//y/6lOzvfKdghk944UffusSDcFt9Fem1+KPeisRNhG0rdAEwdzxh1ce/+GVx+/+4Hfz128f3TnhgqaVEHpc+8VzcaLqoJYX5q/fghrakAILff/b39W88P63v7u4nr9lr4Ovzh7vc9nWEymw24fnl5oFCkC9kMLVR19ocnkz++L+x4pKQrOypnGIwFxJw6JjFdOllXCbBV7KXh3dXg4j0Z4C8rjeUkuU48Ekd8cyG6J9OneEBCiZ/FwoKX2ljjnh/HBIEsUU9urkIEs3hAmyKNDNBx/eiQRHEUfcXMjsMK7pjvoQmMjpaRmkoBkXwAKor9T88FuXvvHRvwQW/tF7svPvvKRjoPnrt9r5A6EMwQugAL2JUJW/viYHkGiQ6OPs6bvXzgxZaIVNucILoIalkQJkffrZP+j9wqef/QN/1VTP38pqHGMqfEQhNnu8z1GD6RUIgqIJrmfK4LgA/35870sOBK7vRb4Q+tjLanJRUAAFGTowke6IodsXtEEv8tKwCGtvD+XY/ijt0sN08gyF7HuI+aPm8nvEshFv78ugBFT6+UPzQvRnCRPwFUDQjk28g4mEGOTw2Rujnm7fdKBA+iRMFjSLU45Hfemcz/CC/kjbfokW6P+rIQMmuLSgeSEIH4QX5EwBXBAwCb9HhA3F7OwpRwr4990f/A7fPrpz9smvfn0thAm/++Ta8t8v6rzA1LB4+6Ch+f3X808/+8drNz66duOjTz/7R33uWK2XJ8f7iA68EJy8yguGKaAke7h2aV1jRNFXNETc6UQNtdpaFEZpGWrCDZZ5Kdzp1clB4oX9gwf6t0zjY1FJIQLzccGIMrvABcwOujGVgw7gtfPT47sUJgQFms8X0J7l89x5H4EMqwBEt+Gy/pcIKGJixOpmuiwHgYEdMiJQAULwLgkcdF9TbvlwuZflBYpKiNrCwWSH8wUWy+s/ogDDC+XugAKHnBHOfvHusk3E/PXbRl4woFzEx+iZN09Z+It7V/U+gs8aCMpsvwAf5kBAjiROH0logI5PboaTiNkX9x9lxxa1mnIfEc81cuYqRHWDJQ/Fs79HSFH9gnjh2RtqFjuStyQhT49wPIEG5Oot9hEnlJIYdIACT5NdkSs5KuENAmJ7oKH9vB4v0A4l7ikW7iNm81fn8tcc2A3xUYg5lcDoXJj9/KPv0PEe9gXgBdSgC/+yCHf97L0uPxlAmtlH6OEMAeltP44PzE8PWiyt/2fvqgUfEYEWRScL8VTy+Q9Cez6M4DLvJrTYsrx5Xnh4c98cCjJfwL1BDaZZqA8b/nBmmR8BZKeY89dvn9yMNdeFg8qaheeOKV4oO5aYLq0xvJB+nD84e3H+k+zckVwCa7V2VKYD/tmPaYLl4EwB+4uw+J/Gv2uCV+NAESNyZB7rZf03nq89c8E0NS+Ex6R2Okm9QHzx3BGVLFN31wprAgKGC9T4DAeJfLIovwuket46pG/jVgIEsUD44q90vBAQCEPz/zLG0c7cihdoK6HjAvBCGCXsKU54H4GfMLmSP1J5+SZiFPGC9v/FWG/Nt2XgPaGpaSfHzxzr13+cf7+wfhwuaMQRxAsU5F/Q9MYplpf6xWHwODUfiVZhR6N+sxyJVtukhvPCBv4OepsMyOeylQhskhe2ElCflCOwBQg4L3i84Ag4AhYB5wWLyBaQvU/BEeiJgPOC84Ij4AhYBJwXLCI9ida7OwJbgIDzgvOCI+AIWAScFywiW0D2PgVHoCcCzgvOC46AI2ARcF6wiPQkWu/uCGwBAqPghZ99cvnzG+9U//vZJ5e3AGWfgiMwLQRGwQuf33jnf97+pvrf5zfemRagrq0jsAUIOC/03UfQS1BIeZClM+tgH9UkKx3keBdHoA8CQ/LCP//sX//P//37DsngO+wjkC6hmjepPSJ4tZHf89dZzFhITHMgaQVLyU28oHMilGJLOXG4PM9SUzPUs3om8wK+HaqgkyB88OEdky5hqFEGl6MfAVJLYhS8MG6eDkwitQyZY2yqCC3cAKIlTPTVzyF54evZ6+//7d99/2//rgM14Bm0KXDilpgAWtLAtulYtkEqBDb9uwcxgztamsQkqEehygtBrE6USIZlrAcSdGGleIHtj8WS/hy2pKSMWjLKPNM2yuRdJKlckV4JzUZVKB0yv+ri+aFwPT2sBF2b+y8y5NWlGIwA2wzeo59iqogheWH++m03alg1XtAJncvkTitZJ9L+RG85jWnaWQhVpmRHVcklL2ijQRcYH2qqhdV4gbKtI0siC1zq9ksblIpFHFQ+NRh92XgMNYCRg4IFV12ENEcqZR4rnyeMSlnw0RIPvewe4ghKgQ+IYGNjQKalDgPzQjdqWPXcMaR4lIxsnKZNZ4vnmbfM0olnBm/JbIKjehXbl9EjTCQVVHs8BmVSvJ6HLGaSuz1lNNMZkKhLdsOCKBn7vqArHvTKr7tE4XkMbBroJG40tXg+witeUCZeZhETz/J0GCKjzHm88yIqrPOm6EHZW8oac3vFU7rdwKghTmiHKDVpf9VFkFks+NoGdC7J0FJluItzUZWiyRstATYGYxh/YZK8EDLELuOFltDj+eGJwkqyGiRNPTrj9Vk1i+sJ2TqFo3VeiOE9i4XbsIfAt5FAkeoldJd7HExftml4L08ZapMXvTqpKJw2GpoLUEYBGJJMUUb2EUYZnggWyRyfdC2d+LZIw9SC2MhKcSJlDaWErA0RZpRDGkTBIUlVejRhuHKUlDWXh4ZV8EfQkz6kqFaiIwpMK2ATQDrywsC8sKZ9RIt4oQ3unOCYW8KduHD39FWwbKYDKXBLGISspe15ITgDBorj5sL1oHyaiH+DSuJFZnasUryEpmhTKLyMF8j9svMRkhlTwsq5iVEGmls88wmCyzCveOFFZVAKi2Q47qhTv0IBFGTo+ETOTx/I4Yt9RtySziAiQ2lItVcTS4LFgkrh/gshR6E5qlQz1RKWXnWhhx5JeUhe6EYKHYBAqnh6Klkqd0hruY/A89O2xSZ+ItelwuLJGuLSh0U1hQnBsnlRitYDZaJNp5g8LVAQzo3xEYVMSOHz+BZxRzaRYL6lwkt4IWpCYzE7kEzrP3qgBqclHlTeYuYI5VFgmSUlRTVyUdDKahI0D0OD96tXXYTQTDYFUIALsIpyteevIBnt7/zTFycHcYMDymMWM43NWOP8OCQvrO13Sn3WqDmiA8R5qBndlX0sxaVijtpXaakBC2SFaEx6oSP/lLUruaVebahM8XDcs2TkIrdC5H1fnt0VyyadyQ8VdzQonITodS/N6OVZ7SKJZbxQBvnFRGbz5ych6qlNrRy0rGkcIs2IbYBdkfmietUFaL1qM5oXNETQvFqpRWkJsDHdYOTlIXmh81RXPXcMLlTcHNFtdDwzs+Zojod3wc6CqR0dq4seLC8EDYkLTOwN58eBQqiR6xXCqigXPRgJVU5hAsLqBJlxW3Fw9mL2FRYxKIxeWM1Ygm7wVG6UVXuTJbxAUwsOL1MOmPBDARSJahU4UNsMWr3Pgj3TDGGeHQ+Kk5qqYQDzEr0y7NeNoW21EmM5L/T9e8H567cdeAEPoGch+LwsuT1FefexIaBdV//Qs2Y9/e8XOnLEqn+/MOBz5fUHR9wDSnZRjoDsKFPoNBVMRrGPmApYrqcjsCMIOC90jHF2xD58mruJgPOC84Ij4AhYBJwXLCK7uT74rB0BjYDzgvOCI+AIWAScFywimjW97AjsJgLOC84LjoAjYBFwXrCI7Ob64LN2BDQCzgvOC46AI2ARcF6wiGjW9LIjsJsIjIIXNvh30Lv51H3WjsBiBEbBCxt8b2oxOv6tI7CbCDgv9N1H0JtXlfesu9kT3unu1t17OQKDIDAkL6wtLwvPnK+QKDO+roQL3qfkd/h1piAZJeQU0OnDjPwmXkDSAcq/aJMXGCH4uBIv6HwQRZZHlQqBXiQ3jZFHAEOPs6Bh1OkVWVu8SW0eHB4rJqXlYO7VSqS9C5ASdMhYA2lbXxiSF9aXx20ecrdd39t/eHOvLy9I/gV2m6ndH2HzFGlvSdb/7FhyQ0Z6In9oS1Ub9IHSIddwB4ROqYK5TzGHApTvUBiSF7oliZ+/ftv53PFJb16w+ZqmdX+EStmGZ89LJUhB1VdyvePbERYQOnFQsLY7IKoUADsZIVAXodLAvNCNGjqfOy7ghZZ5X/G8OV44fJZl/o+mKfkdG3Kr6XSvdNCg2uOZkbuGJVoGStsT9mQkFMOeRdfHqwoiEcS+nKbNUADcCUNzgcZNMQKviouVQdo1k6NNlElbFSS2QRCOvmWNnhealZps5A4IVsPkieP0KpijAXYrP24tL7R8WggaxS7fBL/KEzfD00KbynUMLXkhxvw8kPKH4F3wbWQlBI+QTzb1DfWJUPgcocZKIsTuI6rKwAEUFEFJ1AtNiDQJW2h7kuUmqtSUuVsV2jksQVRO3Hy+e7F3QMBywi6GUtfGtEu7lO9vYF7odsSwqX1EltwVxk2FSdwfAS6DKQePXcQLSMpqXZolmL6Qb+p5FPARF+gIgwIZnQibWEAfChpRaQjBP2oSOkZeYNIkomReiF9xSzqDSHEQoADjB21DmllMORJxtRLdDfeVyWB1y+0rD8kL3UihD6b99xGwHhgoXGv890donQGjDjRQSVaenS/wV0ZCzWmDO5l6QGSuxtQyMy4gn+caI4oUoCEsL2zgDggdEBle0EuIRnVby0Pywpp/p2y6mXKlR5WHqVO7PyL3JUzcLKGz4vcItLS8UAb5O3YHxGz+6lxdz6v3EYY1gOFWFobkhc4AXcS5Y0tlqrxg9pNY4tiLYtg8gvsjtD7mryTwwz5+hMfKrJExvCCLJLYbIW7n9hR1h/p0BLCNd0BoSEEKfu7Y94//tM21L3fmhfZDNLUMPr9L50lNOIy2XhNcYCU5CFyzwtUfL9eswzqHG0W80PncsT9S/JvZToWI/UHbNQm0L0uh0y5MfxS8sAtA+xwdgQkh4Lywma3ThEzEVd1BBJwXnBccAUfAIuC8YBHZwcXBp+wIGAScF5wXHAFHwCLgvGARMcTpHx2BHUTAecF5wRFwBCwCzgsWkR1cHHzKjoBBwHnBecERcAQsAs4LFhFDnP7REdhBBEbBCxv8O+gdfOQ+ZUdgKQKj4IUNvje1FCBv4AjsIALOC333EU15hLoZE97p7ta9qReUbGrg9Y6ARmBIXlhnXpbZ4/0bly/fuHz5+t7VR1/EHAF6Yi3LeJ+SX7zXWYZYAjdY8HovXA6F2FGlJyjFNqm3Ki+wepwSAkkiS+FGt7KBqdFpCD748M4CyabjZj8iSQRSy2l98Mq2eRyMoX6nVsvB3KuVnLqKh+PMFNvx8uWQvLC2PG7hRpkr919QypDZ4/3re/tPJH2ItoM2ZeRfYE+Y2v0RKWcs6d/4LnAnXpCEiCo5YhtIN9WmdMg1XDZR5fEtSNYwJC90SxLf5/4Iyi90+rBHyGDzNU3r/oiXZ3fb5SnpwwuTSHkK/1znZRPExZE9NRvCqHTltMoD80I3auhz7tgUL+zG/REpXtBmV0a8mhc4bDaRtrnlwVi8XzahU7mlGJN4+eQopr3DTsR5oXJo12E30ZkXZl/c/3hv7+Hj7ucLZT7o8NTVjQaHz1I25OAtY7o/Aptb5FykAGqpkrJBkLSxxCPZHkTzAn2bUjZjLOYXOIPCLbAV6kml54cpTbvchRG2J/mgZU2Zh1Y9mlyTIAoOSfqHGhTAm0yaODXgepgBfwRL6hsxy0qOTVgUUDLJQTHutAoDxwsdSKHzPuLFvas9Dx3DjlSSO5IBhXzQXJjE/REwNTZZzIVNUx+GIV7A2Rt/y3bPHq5P4xgEkWB5hMdF6B4/gmWKCyxaDxoIJVMjF2WeEXwbszs/fRC9VK6fwFesJJ1BVCJ/zQvawxmZYBXqkCVV5uppIbqMxzShwpC80I0UuoH15Obe9ZunC/q23Efg+cHmeBHePzgb//0RevrJWIMFx+WarJmXTbkUKzflXEJYydktCQ3rPxoioIQrJNDF8EXZsmlQrudRohq5tmkI4SDVJWgLoj8/Pb57QBNXeX3DMaQsA1oHc4ACIdyGLaRaGeBV5zuwJdPYjDWJj0Pywtp+p6TtQ/ffIPSDySPPqd0f8fLsrhg68ULwDe2WwUBj4C28QJE5VtqnR+Q8L89OnoW9GDwfHqixwrdcyUyE/QLGBUORwOcnp690DTlhw6AVNbItiRoibkagHrsia8hBUIyhxG9BkeiiC3DpoHM1NKhWEj0xAroXjEoPMa3ykLzQeearni/gjxf4TxhuXL7c+YgBj9AYvaZ8Y47xxG4E90fo/QL+ygC+EdyjUFLsPh6VKYKQOyOIaEjIkniB3f7wlnRUhwXkJKE+HQFQFMPQNQ3K63bcvGR8Z4cwD4sND1d7Vu2w3MtADRMvhHk9O2Y1gGpjJfGsmReMqqrJJConyQsDIht8XkxwQLEuaiMIaH/2yyb6PIJR8MIG35sywXAfKL2vIxB/jFCh00QxGQUvTBQ7V9sR2FYEnBcqf4KxrQ/b5+UItETAecF5wRFwBCwCzgsWkZaE6s0cgS1GwHnBecERcAQsAs4LFpEtXgR8ao5ASwScF5wXHAFHwCLgvGARaUmo3swR2GIEnBecFxwBR8Ai4LxgEdniRcCn5gi0RGAUvLDBv4NuCZM3cwR2CoFR8MKq71Pu1BPyyToC60fAeaHvPoLevMpyn/R5ininu4+QDn0vYlxCxr6s3VK36pvULft6s/4IDMkLa8vLQm/+nz7c26P7I3olaMH7lGyIOokYg8sNxnl/BOtcZgroYBb9eYGB0tkTBueFAefbAaLOXZCNgsFBJptoYJLrwdgeLBPjajlIHlFW6jyUSAyBDD2QtrgwJC+sLY/bbP7loyuRDpYmdFs8f+RfYJub2v0Rr04O4oJM9tFxceakIwu4r8SQ4UrWScatP4YEmSFnSUeVjHxWgCqHmW85owuqKR1yDbdaYC5kFSGY5dwzeEBo0FQYkhe6JYnvnPeVpxTyxMsdM02TXFCP1DrREKd1f0TII5YcTycjWzDl6lerxgvab3llK23uQnmhTLJUnddmK4EqJ4zZv3V8eBRyBepsYNCwhEs/UPo2ejhaVish0HABTF03aCoPzAvdqKHPueOTm3sf3/uynF7LvK8AC4aePQzOO6qyj5ZhG55NKqj2UEw9S85NSLmPKfsgfRVTleksQ7o+JhGM+U5j3xezr0pekInU5SOxGu3FQhtsQzhe0CtMVlYJy+780z+j4/7B2Yunf1+NNeKUT2NONOTFKudllKFYI2VwZMz3j57T1CwPdpuv4JkQQHiPOBxYlTV6CmhWasIXTwHGCMjLN1SITp4sRC4oQI02Rc74EtVWScaSAatKlgBW4o9oCfkLClPlBb45ok9mRwYF0MtDpbyp6pKCMd8fof2EjC/4DE9EGWswfRh9sJWUCTbmueWFZQEvsBtACLmx8tsaD8LVmQ6UemlzkTAn0qnKJ4Vl76DiIyUwaNJyvvkQNU1CHsrMY+HV8CKDhoK01CSIgkPSfEMNCkkm5b80MReMk5uBnhbfasGNgS2GqAYp+NYUBuaFbkcMff5+IZwvdN1HaKSAIxcmcX8EqxqP+mQnj4lE+8idFt+axQQftRugjG9hPZAT/D8fQrUxjke0JcdsiFM01Kov8c5RZLE4FwqXBpkvqw0duCBnIvkdFsRZ+lDQzBdQoCDaxhzca77VIo5eENxKO68heaEbKcAUuhXCHba1+ylb7iNAyfqh8oMf//0RpHOKq8Uc00peOi26WOMW3wYXhL5iW6Zx+CruaDi7fPJ//RARNkv7yAvlpqNJ/v7Bg7vCd1pIPkqX+QZpMmUtTWOYcQHNl2tMxwSpwkRri+VnPbda8BRg2Jgd1EDNgsKQvLC23ynDJkIulQm3TnWNF7I9m3qoHCim0FQMSBtEQDkF5BwcxvVBkn8mjyUHw+UUuR3TcsQBJDtbjOdVPTE94s8U/MMi9QPWHkvWWewj1KFGZdzABVHzfI7Qn6+EyGZBLdV8nx3L2hsroSpji4A5XmChJjubZ/IL6NIoPOtO893mWy3koVugsJ3R1tJUHpIXmsZYWt/h3PHFvat8eUSfS+6beCE6tuSPBx2wCcaYs7iagSw+eC/Plw3aBL2yjCTfDjUSWofl6PQYy6mWoB0YTgVn0wgbPxErsVcwLBgX+1hcPxEa0wZYXwnBzZK2MovQJl5CkeIIrSpEZbcz5PL1LEDTT/Jz1oizInSpSaeJIPfqFKqaPJV7aHFQWtawSvJw40PXOuOJbOZWCwn0oIY2dV3ZVJ4qLzTNZ9X64PPi/6v29faOQBsEwPuRR+QKrDZ9B2zDP460FDgKXuhz7thynk3NmPj1MXVTS693BKaLALaELacwCl5oqas3cwQcgfUg4LzQ972p9TwnH8URWCcCzgvOC46AI2ARcF6wiKyTlX0sR2CcCDgvOC84Ao6ARcB5wSIyTv52rRyBdSLgvOC84Ag4AhYB5wWLyDpZ2cdyBMaJgPOC84Ij4AhYBJwXLCLj5G/XyhFYJwKj4IUN/h30OrH2sRyBqSAwCl7o8D7lVPB1PR2BKSLgvNB3H4HXq1HoYwd4p7uPEO/rCPREYEheWFteFsyZkjXV876izeIC3qfkl+d1ih7uyA2QZaCUBjpAIXaUhAKUs8AmySjlxF6SA6apga5HXgB+gReJD3SbVcuMAwQi18OqctbcXmdS0OkPWQ286WyeL54+tNVyMPeWlau+s4hBR1gYkhfWn8eNs7NU80G3xBr5F9gfpnV/BM/R8FHLiTc1IxwkyVKgtraM1iRwDfWlQ170HQ1MKDFZjqTSNXnZ1zDxixtiSF7oliS+8/0RIZvblfuPGvLEt4QMya2YFw4ndX8Ez/HieGGlTKEtAR+8GXZe67yjQWNO5cieMKfBp7lmgQPzQjdq6HDuSFdO7T18/GaX7484p5xxuY2GtItIM8M+Q9dM3D58lrKbpQiZEivyroF76XgBvBBJkyTo9JMxAZFKrE7KxJxxIjCNC8WQKg551soaLQrNSk02dUcDKAAh56q50tbs6isNN1VeAB2gsNK00Rhpc8XgpnR/BM9C8wJnbcRpSPSZmMtY0hBK3EsdZcsgWRI1L9C+OjRgcJRzFrlkUwrcxEpBmcA7xRBF9kEaKKXGlI5JVPC9OEQgvlyT0DF5aZhIqCGdc5l04gNOZPRgAPwR9KQPKVaq3I60gAPzQrcjhlX/fkHfPdeHF8K+VJI7Jl4gD9GXGiBSNaYjlhrTQMM/TXvx3nhnHAaK9flBI/riqAxHgJRhOcvCLJJTHmrxKHZmKJb1ggILhpBAwLp0XWdwSj4XJinozwXJEz3tOxrAmAJ4SuRriIYRm9y/Q/JCN1JYFTLeQXAyaPxbporfhfsjokjjLZYAAB1XSURBVJeGNTlbGHnxBOuBCKR9pAlwkH4E1DjSAeqthNz/0aUUWNYYmfoHAh6Fa0zHNIRwkJpL0BaTXc8dDRiO1QAXmHpMdnKFIXlh/b9Tzl+/7RMv6A2hNn1a+VWwKm6gjTVYQAqeOXBN/knfJu/iH7ri8bW17BCT66/0Bh5Br9yzkK384htp3Fjz8uzuwfGhXGkb/U0io1xzvdAh/E6ayxDZuIwPDgsAC9fLXLb5joameAHbmckRgVF4SF4wott/7HDuCOEXwQtTuT+CQcD+BZjweSFOGSLlHcn9sSq4YMLiCF/8ObsjW4bIeAHBs2w3UrQCgekIQP0dh6I5uc9C2Ap/i6F2dunAMknLWZXV28wdDeq+DMzLeaHvnwlqI+7DC1pOh3JY68Q0O3QfbRdEtuTD1qtHq3ZnxcxZCTixs8BuHVe6o6HbEOvpNYp4YdVzxwGhMSHxgJI3KIoWbbWG19bYDaq3rUNjg7YFExwFL2wBjuOZAgfkiGx3JF4YD/7boYnzwpAbou2wCZ+FI+C84LzgCDgCFgHnBYuIrxWOgCPgvOC84Ag4AhYB5wWLiK8VjoAj4LzgvOAIOAIWAecFi4ivFY6AI+C84LzgCDgCFgHnBYuIrxWOgCMwCl7Y4N9BuwU4Ao5AicAoeGGD702ViHiNI+AIOC/03UfgNWcU+lgVchn0EbKgL79z/cGHd/QLFAvayyvV6S2sxY2r3w6CTFWyV14QAkPywjrzsnCGeM7XdP3maWd08D5lTF4iyQghkBsseG8XRo8C90Umgou7PwJOXuZBgP6mEN75W/G9cjMvFhhSHuRyguSDM05FawatSjBtzEcztfYsZuSs+aN+6DpDJKuBl8F1liph3pTMMtTUklYsroTMQV7rHJIX1pPHjSHumY4F5oL8C2yI07o/gnWGz7DZ4SPmqAs6L4OuX1CGV+vhAm46v8vCV7khYcEo5isaK6aNIn+wKaRM+zF8LB1y3ddYCC/3TwMxJC90SxLf7f6IJzdDkvj+1oAEO9HoJ3V/hHZUhoJcaFHMPxgvUIJ5cNDicXvyAtLV93/cFycBG0Bm5/1bx4dHIUdeNUAjQDKm089Fw4WW9UrJMChv00eZsOrO8x2YF7pRw6rnjjr16/W9/Sd0jYKBoGXeVyAIH8ueEOOu0S8CPDywVFDtoZV6wJw9KSQp48Cbvop5zcKmQ1hf18tdDFlfuRgi8SNmgegUWZjZu/SOo4xLtXujzPN6MlNZ1UhDvZXQ1l8RK5lpIVNC5UhhDTNNnsMPRWZXhy6PX5K2Ap2t4Wx9GpBqjdYNQ5SabOQaC5CR8ELM1gmrhvmtWpgkL+hJvrh3tUwGrRssLoMF5ElP6f4I6Iw5ooasOfoVKvXCGyqP4nEANgVVv2VekBsZUp5YNNby62IX8kJVVZIp+gcuDmUeSDlncPUs/WzKxJvqhSJFmmx5oH9CLwyURVtMCrUhAkHnmoSOcEhSNdSgkI+SYOR62CF/bHljBU0hitK7SE3TGHelwsC80O2Ioc/fL9DVtVcffZHWzPbz1/CxzR0+i8Y3ifsjoDOmTDXkQiorqQkZYOXl8qhdBeVGXmh2MJg1e06SoBwvya+pylOTxdy6NM9Xr5Z6wTT14av6EBR3qJNmZgEc4HFHhG/ZEDL3qIkQ3/npA95bpSnLV9wymJwaEQ9O8wIhgykHJYNZCjmSGrFST23/4OzkKPbSCwCGWKkwJC90I4WV1C0bN/FCy30Enof2MTask6O45sDO6NlIpZh4aQFsXth7s85BSFzNsiysEJ6aUZRu6uO31hwzUdqOq921udTnIpMKoqSsJmiHY2LN6DX0aoZIZGby69uu5WmpzRw1J2pn1rDU7IdX/uRRbAnsvY1DVB5EkAAo1nONhZ4OHpPJZq7btC8PyQtr+51yNv/yhQQIT27u9dlH5IGfhGSB41WUKIarrYSInwNFXOuU7nGgb5WpkbfISpJ5lyaRaJHMC6QDyKV6f4Tmsmj9shZpsUQHMTxOPCiTimbEnBX0jGrXJphpLr794K5cVGE8sCKhUX6Kq9VME4Bs0Ha+BBHCHzwdPffZfJuvsdB+jifLDxSw6Dbty0PyQvtRTcte545X7r+onTuaIZo+VnnBMK4yuOAYMSw/Oua9KHgaBR6LF2QTCQfPyZca9qXU7PQYa52W0MApSR99YFkqoPhFFnNSw8yFJ24q9bx4g5A0JCH4iNktlRB+2xcAQy/iTe6lZrqEF2i4wODcEbt9LRCV5RAcPcW+8rcY07rGgm0pon36CkYOq0bNqoVJ8sKqk1zQPvi82MSCZv6VI9AGAXOQoRmzTfeh2ozu7xe6TazPuWO3EdGLY86eQRekecER2DgC2L710WQU8UKfCXhfR8ARGBwB54W+700N/khcoCOwcQScF5wXHAFHwCLgvGAR2ThVuwKOwMYRcF5wXnAEHAGLgPOCRWTjVO0KOAIbR8B5wXnBEXAELALOCxaRjVO1K+AIbBwB5wXnBUfAEbAIOC9YRDZO1a6AI7BxBEbBCxv8O+iNPwBXwBEYIQKj4IVV36ccIY6ukiOwTQg4L/TdR+A1ZBT62Afe6e4jRPel94vtC8u6gZcdgRKBIXlhbXlZeBqzx/vx/oiG1K/lbMsavE/Jr7KXOba4wYIXZkEHKET1VE6BUmypSeyl0qU0tUG9fv2+6aqYVXmhjUwoMJ6CTq9wcRc36OfIhqEvBxnkRcaRQDokL6wzj9vs8X6fNE1AH/kX2B8meH9EjAVW9X8gYAqEw8AyzRCDfywd8gIvbojZtEJGHH49P5iQZIvtn/hgcHC6CRySF7olie9wfwTlie+Y69XAhMw2zAuH07s/Iu0RdCYvM832HzUv6HyQ7SWsuSV2Xhd1cYOK4AAOsXBMjRct51nIPAxzWjMIgw83MC90o4ZVzx1nX9z/+Mr9Rzf3eB/x8b0vS1xa5n3Fg8TT1d4VbU5bhtodSMYxm98Rlqq1orAz+LAMRCkkVSpHzsal07EhUkVgbPrS/RGWF2yb858g93lNYMqDFle/kJpticzzkP48dcRqaRKricDUEvlvTMJonT8O0qpDmNmdz99c9MUN+mnK6HSZgErzBZuBOelHP8XyNHmBThb4vqnAEXvdYwc80eyR54mbYRmhTXnnQvCQPAGs4hHYRJLPOREl8mTr1/kX+SyD6qN/NvdNPox9BDdO3hWIDOrF0Je1ah5Cxg19Q9nKLBOurjSEqJTAKWsahwgBfJqdgA+HJFV5vq9ODuKSHucbRkkJZrkSBsAfQViJi1Uv3NEQdi4NvKDrMcHJFQbmhW5HDKv+/YI5XOh8V6V+usb3JnR/hGQ9FWcm3gHRIOIFu8FGTTJC9gTGYYnMnPgSdHl9CB+mf3GDngXuaAhg1nhhEjsvGMCCwpC80I0UFijX9BXvI5AGusoLLfcRWC5g3GwHZAHqYIkDflo6YngsSxytuliQUbDrUrCkuKiGFS/5be5L8F4UNAhaSQraU7yAZrYN9MwHwjTNDdTUPVJMo8xcFLqUOpc1RmZ+ws+xAEUoTUMY1pNdDyh+8IsboDABLrGhUk8DDjV0rymWh+SFtf1OyfdT8rFCz31EHn9Gd+XYPgWrYgTayoMFpOAZdBADV/o2eRct2hCe8wIFzHJUQY6hDh1AH+pWBcUp4hXa8rSZBlMGL2QDNd+q0EZmGeQXOm/NxQ0a2wWrCNMrzEn3mmJ5SF7oPP9Vzx2JuU8f7sVzxz4XW+NBGnfSxA864DYxXb9cf1DGC4wDc4EJyEnzjBdCjQTbYfFc+f6IxD5xXLOiCi8IR4TbFhLlhW/j/QuKm5bIpFmk00RIaznEtC5uyB66uqMBz1dPH+bU2RdG0nGqvDAUfMHn1UZxKLEuZ80IgFsjEVP8smYdmO8Q4q1/9AFHHAUvrHruOOD8ecuA388GlOyidg0BbC23YOKj4IUtwNGn4AhsEwLOC33fm9oma/C5OAKMgPOC84Ij4AhYBJwXLCK+YjgCjoDzgvOCI+AIWAScFywivlY4Ao6A84LzgiPgCFgEnBcsIr5WOAKOgPOC84Ij4AhYBJwXLCK+VjgCjsAoeGGDfwftFuAIOAIlAqPghQ7vU5Yz8RpHwBEYCgHnhb77iKb3rLs9IbzT3a07etFbwPZ1aXzrBUdgMQJD8sLa8rK8uHeVM77i384pGPA+Jb9mr9MHMXDcYBL3R+hEABvkBZ2woOlWi8VGuZFvkU8h5tdQqRZsjoyXIfWzNg/9Pq6Wg3euUWkMDObH0sbzRuaQvLC2PG54KuGBhbyv+0/m6VHpb5eWkX+BrXmC90eo9E2U3wW2uHTuAzZg9MrMLhukp5VmVzrkem6g2L91fHiUJeMdyQ0UQ/JCtyTxHe6P0I/8yc29zsGCTvgfLXt690ckXpB0STGXnEbpostNvDCJPKjYu3FyF/bVw2dvdM4uAEgrfLZBQ3K3gL/kp5ZyaAn5VGlTcuru2iAx4kYKA/NCN2rofO5oEkNrBFvmfUXiLVi2fk7xiUp+R3E8k/hMcoGKTWg7gEqwJxko5EFTKeGjzNXvj8h5QZK40UKdkk1KOrlYw+GrDph1DfYjWgjKcSKnx+ie9T04a3Orhd9AAcPQ9ua8kJ32deMFzv7aJ1jQq5m4K7F7nrgZfh7ajO7+iCW8AH+GIbIbZ1viMo8rI2BzQwZa4e6c/I6E05IofGSWRNMgMU7TiHm9XnVFcphvZVJKVZ6pmWZ4iOqx5pqEeeUrBM/0Am+gwOMoeWEMiQUHjhe6HTF0+/uFnicLzM14BokXyMQndH+EPlCgWZCjip9EN6brYaLDqPCnWpOgECESKIEXYiCdhrO8EMMfHLNB5pIRa7pxYIJ/w6Mh+oBwoY/bWU0uCgqgEDUJoiIvyPmIDQC5JZ1BxIlzDf+rHRs8CJWiTKT2PTg7OcqE6O6lQD3QOstD8kI3Uug82+q1EZDWch+Bp6LNhQOEEzkQSvFC8BO5VEJ8hmwUDoNCtowHK8nXKzgzhLPm+IgCZkSmluWS1jrb7qJerCe/ZbcpJZsaEpuRSxhaBNJ8l/JCZvoVzStOSyPm9RG3hiSuPP2MC5qnmSalKEwUC0PjNGE9N1DgscICuQZqoMFGCkPywtp+p6THefqwx/VzwDqPHqMzy3IUnFybpvYfWj3AAlkhRiJ6iSZCkeXI+HY4aNBf6UMH0Efz/RGJgIJ6Mmhy45dnJ3SlKkiEZycjposksLPANPXql8+3Ny/k+4U0ItWXulkcykmVNY1DZPgjbGR8+NItvo0OP04DTJiNLmjH1ohpnNFeN+ZKUwODRJeNFIbkhc4T6HC+0H8TwdriMcBtUJ+2GLKIwXSC9Yzl/ojKgWXgMlneq5c10LehY77NRvAfCZF9Jp4vZvO1vICW+8W5I+Np4CVm3/UbKBgZ54XsrJFB4X878ILu3qccViq/P0L+SqcPklPv6zdQ6Cc4inih27mjnkbnMgd7CKE7y/GOjkB/BLBZ6y+qp4RR8ELPOXh3R8ARGBYB54XG3c2wQLs0R2BCCDgvOC84Ao6ARcB5wSIyIVJ3VR2BC0LAecF5wRFwBCwCzgsWkQsiYBfrCEwIAecF5wVHwBGwCDgvWEQmROquqiNwQQg4LzgvOAKOgEXAecEickEE7GIdgQkhMApe2ODfQU/oUbmqjsDaEBgFL2zwvam1Ae0DOQITQsB5oe8+gt68svkXOlsAMhF0ltCzY/lCdE+B3n1YBOgBpRfhWXi1ss24ZL3xrXndfkheWGtelpAefo/vj+iT4hHvU7I/IK8JMOIGSNGBehSaeAE5DijNQQV6SNCFlXihqvNKEvTQXGaZyINSNlhawxI4awPyOyzttZEGWtVJXHXB1mgsqqw081rwFKhvxTiH5IW15XGbzU8f7sX08CEl9I7fH3F0rGlrs7zAbAhaCWbXkIVtcCLowGjURXLMhEw2FQ8ZXM/OAmWCnI321cnpc0pvw+mnqpXLL1VZBy90SxLf4f4I4oV4lwyVrz76YjkE1edh8zVN8v6IYBlIIbFBXhDD7fgsqg+ofWWH0TUv6OTg7QddZ0vx4SxLdUOlzVXXpKd0t49syHiBx+4QNXQ4d3xx7+rH974MfPl4//rN03LaLfO+Wl549kbn1Yo+JnncJD9azHeGNIScUJggpoMG1R6K4QGI+Q55f4RepcELVBk3oihHNZ6FBLYcOSNPETOLVo/3AtniT704CaJarOJcXpz/5G5zdEBDR+hkrOeHtx6cqKsoGK5aSzZ0BRqlzISGuotOkGm2M3p2Zco5fvSmzdiuutg/OD48yM4XwtVYeaVMIfP2+OhztE0lcpdNmBdwOSUTBDxwpQJYAFAGv1IXDYTbCsTPQ5ux3h+BVD9JW5XiMecFuc+GkpezKagGwQOxI1VokA/T1YwJq5h/WdhHgNIEKmBWu5OfUx49UiCE8dFSFw9UfxBpkWSayGIo9UzT7IL+dh/Bs1NtgpI1UVk9sWRtjuopRNYra8oUtTVtufvTo8CtcOBqJU+BORGNGRP1uIH27aLy1cC80CFY6LKPCIeOce+gzxpWYgQkAo5PS9KHM6aTuz8iWvPR8xa8IJ4QzNGWWY6KEaKzIayAtdE9DskVg2MoXhBU5S4GuUAh764ViC7aZiAWzlmb6RCOwjR5gqUmmBQKol7QX2IKQLFoUpBQmWzjHPOLLYgF9Am3EZWGUDNihYl9wj7iMMQIZ+dyLSt1SZWQgF412gIv6InH8pC80I0UtOotyy/uXdV7h+pFEi33EWW8AKua3P0RtOTePpRjSIQAYUayRuWrsXbLWDYmhY/GdvlJ4Vv5mASqGnLagjIaLbXeMvfVMJ3yIo/UxmhLerIbpDakQIoXYHt2Urk+SVReD7OBr0KgDGTYIWjC7NBSW4FUjhgl0hH5x08l/DFTkI7p6aRZZGuDUPPLsyF5YW2/U1KS+AHiBQ4ZZK+bLCZGXBTL6eetn1+K2wOyvF7FQoxEZCkOEsiO5TwiDURPNISj+iu9Pca63eb+CJ2sPeyKw6CR/nNtsT5oQ8l4AWFq3jHdVVHVpzLxDJyyu1ZAjJKW0yUTVz6pNEzAVvYRtLoah4F7lD4MBZpF6QeXruFAxwhRebFFWUNTzrYqdW35xx3iBXm4Qb3Q2FQmKDA1mggevUa7qHx2PCQvQINVCx3OHWeP93G+0OfvF8pzR1Y+WJvkjwcdsFVx2Dme+yNgiLJupAgTkXauLexAu2XGC4dH8VpabLPBbjx9HtS4GUPHJKj3C2W9dNcKpKVbS5CWmaFXH4SlRXI22SPICUgembfhBXC3EaUBAUql5tX7O/iMADv/piFKeCE/24bQqkP7KTzZABceQYxKAiC6QSg3kMXQ5wurMgK378AL3QYqewWfF/8vv/UaR2BsCBBZRJqDbtVKfNuhMIp4YYPvTZkosQOC3sUR2D4ERsEL2werz8gRmDQCzgt935ua9ON35R2BKgLOC84LjoAjYBFwXrCIVOnTKx2BnULAecF5wRFwBCwCzgsWkZ1aFnyyjkAVAecF5wVHwBGwCDgvWESq9OmVjsBOIeC84LzgCDgCFgHnBYvITi0LPllHoIrAKHhhg38HXQXFKx2BHUdgFLywwfemdvzx+/QdgSoCzgt99xH05pXNv1DFuk0l3ulu03jVNklVeXt/VQnefkcQGJIX1paXJbyvLvdHXJeEbt0eGN6n5Hfd9WvtLJAb6JxZZqDkbOH99vQCLF6V1y/Gm77lx5V4gXVWr9mn0UvJ8pI/UdjQvLCqJlX1dKURqHNM6GZjK+uHjuy4UBIp6oyZwQhTS0mpoG+1gHDdnfsimZ2kxlliCRioqTAkL6wtj5vO6RjyQV+5/0IS3TXNs6ke+RfYEO8ePEDaHO7CqU1W5YUgVnJgIIFHG+PuwAsQy2aHj+WUQWHlVz1rGD0M3UKTLM9KOToJlCQiQ7NYOdwgNcgcBWkhU7MsFQF8ychI5kEETXli9m+F1IwwPHZ1BlO1VOmhJF0VoRQpIIwlmUSeHqXUWFBmpcKQvLC++yMUF8zmXz66suP3R6R04LSkNK4Va+MFocIFmqzAC+O/2SHMF77KWbbJ1Q+fvdGJv+CZ9CAi63El8ozqsE7KlFhJ5FNlym2VZKoGyEKGb1ctDMwL3ahh1XNHHSMQL8S7p/TkW+Z9BYJY8bInxFgrxBHLIcCDs6WCag+VYAoyUKB/ncoxbQewqqhMZHkSytj3xeyrk4NsZRDhgSloxPK+Blqmwgp8/IS6Y5kKFhzTCgb5rE857s3vPf5RcY3NEk3yqFgrtnDE5Dn8UGR2deiwMjfPPZsU8r6ZIJwnDmmZtmnxZ15LmvASDV5WjzvbXbI9IAqAeWirY8Ui8pJPDLwjvJA9d0OdsGrIX7UwTV6gwwVO68iJHjuneMTzEJuj2yJiHte4puGRhDZjvT8iGpzkL4RdajOiysQLT+f51RhEMQ0dAxTJVRTxRX+QcWF/Cc86aCleaB7R7iNYZlKDeBO8BmcjgSksF5oQaaIqfDjpTHT5VO1JjSg1RA6IHC3BIUlVgjoMl8VNvLRgz8Wjww75IxJz4pBC99LbNK7HKoXu2FNgdisVBuaFbkcMHf5+AXlfr1+5/+hmx32EjvEyO6b1MNGBcoNykSHTYQuQxNB5e34eJJ8CQrHLWJ831oMigsDSDSWVzGzdSKM03mWQ80IwaNJKXAJnYxi9ck8Eeok/GMWEjKIr1kBTvFBXNTSQpdu6dB06ARYYcrOgTH0IWu31MVCYTp7N3TwdDCEFeRDx0Z+fPojnAgmZLF6gM4gECzTUvECujikHlXDWEAE5ODs5skLo1ql0o4QWiFHaF4bkhW6k0F7Xakt9V6Vu0HIfAfi0ZbNhTe7+CHaAGJnnBs3IJAoTFkD8mRa6esfkxiyK24NYNXpxLJHDC1qMimVc3b5045JWRP9MDdORZAZvMfUaFpaj/2VNskNi8nmuMaLSEJYX4oYfgJyfHt+lMCFIUMeBKGsd8BS4EkL4I0wUXfAcUUOIpXTPRoJu1rI8JC+s83dKTK96qQy+XVpI/qCeNEePKV6FiUuBF0BugIeEgnybGD0LAtVA8jhlQWCLVJt8RJvV+xq0d0Xrl9WPp1B0l4hG/DP0enl2N9xuWFmgyF4RDOeBie1VeCw0qYOW2jeoWjtaq0GX7SMK6GbzddzsEJ/40XN+Ihz8m1+yyAayDYU2Tu381LL+OLgLGoeWQjqBC+RkClath1ipPCQvrDSwbrzyuWP4DWKP74/oczklP864lOU2pxkXiwaeenjwR8d34zGEOJuEjjw1ero2EiYiSC4RW0qUG9ao03RpvZYg0WnWV+sTDs/ELEoFpLuoqnmByUjMKzKFnDtKx2xclq8D1wWa6K8AGiMPnRtmmog1zih/RgRmCLNlu5G8DgITuYcpx5aKLqWvTL/zzQ685ptHwGpH5eUpY4MGNUy8EOalGutHwH1BhYBRH51qq9YKrFSeJC+sNMPFjXWYt7ilf2sQwKpl6nf5o/ZnsN76ARnd3y90g6DDuWO3gcpeHMRqAi7beE2JAC3IaX0uG3jNphAIoa78ntpZh1HEC521944bQYCDbR0Gb0QNH/TiEHBe6Pve1MU9G5fsCGwKAecF5wVHwBGwCDgvWEQ2xdA+riMwHgScF5wXHAFHwCLgvGARGQ9nuyaOwKYQcF5wXnAEHAGLgPOCRWRTDO3jOgLjQcB5wXnBEXAELALOCxaR8XC2a+IIbAoB5wXnBUfAEbAIOC9YRDbF0D6uIzAeBJwXnBccAUfAIuC8YBEZD2e7Jo7AphBwXnBecAQcAYuA84JFZFMM7eM6AuNBwHnBecERcAQsAs4LFpHxcLZr4ghsCgHnBecFR8ARsAg4L1hENsXQPq4jMB4EnBecFxwBR8Ai4LxgERkPZ7smjsCmEHBecF5wBBwBi4DzgkVkUwzt4zoC40HAecF5wRFwBCwCzgsWkfFwtmviCGwKAecF5wVHwBGwCDgvWEQ2xdA+riMwHgScF5wXHAFHwCLgvGARGQ9nuyaOwKYQ+P/Z4txVSBzc9wAAAABJRU5ErkJggg==;" vertex="1" parent="1">
          <mxGeometry x="310" y="490" width="349" height="296" as="geometry" />
        </mxCell>
        <mxCell id="mYZ1RcpmayhiG7XBKgf2-26" style="edgeStyle=orthogonalEdgeStyle;rounded=0;sketch=1;hachureGap=4;jiggle=2;curveFitting=1;orthogonalLoop=1;jettySize=auto;html=1;fontFamily=Architects Daughter;fontSource=https%3A%2F%2Ffonts.googleapis.com%2Fcss%3Ffamily%3DArchitects%2BDaughter;fillColor=#e51400;strokeColor=#B20000;" edge="1" parent="1" source="mYZ1RcpmayhiG7XBKgf2-15" target="mYZ1RcpmayhiG7XBKgf2-16">
          <mxGeometry relative="1" as="geometry" />
        </mxCell>
        <mxCell id="mYZ1RcpmayhiG7XBKgf2-15" value="6-默认值处理器" style="rounded=0;whiteSpace=wrap;html=1;sketch=1;hachureGap=4;jiggle=2;curveFitting=1;fontFamily=Architects Daughter;fontSource=https%3A%2F%2Ffonts.googleapis.com%2Fcss%3Ffamily%3DArchitects%2BDaughter;" vertex="1" parent="1">
          <mxGeometry x="-570" y="320" width="120" height="60" as="geometry" />
        </mxCell>
        <mxCell id="mYZ1RcpmayhiG7XBKgf2-27" style="edgeStyle=orthogonalEdgeStyle;rounded=0;sketch=1;hachureGap=4;jiggle=2;curveFitting=1;orthogonalLoop=1;jettySize=auto;html=1;fontFamily=Architects Daughter;fontSource=https%3A%2F%2Ffonts.googleapis.com%2Fcss%3Ffamily%3DArchitects%2BDaughter;fillColor=#e51400;strokeColor=#B20000;" edge="1" parent="1" source="mYZ1RcpmayhiG7XBKgf2-16" target="mYZ1RcpmayhiG7XBKgf2-17">
          <mxGeometry relative="1" as="geometry" />
        </mxCell>
        <mxCell id="mYZ1RcpmayhiG7XBKgf2-16" value="7-价格处理器" style="rounded=0;whiteSpace=wrap;html=1;sketch=1;hachureGap=4;jiggle=2;curveFitting=1;fontFamily=Architects Daughter;fontSource=https%3A%2F%2Ffonts.googleapis.com%2Fcss%3Ffamily%3DArchitects%2BDaughter;" vertex="1" parent="1">
          <mxGeometry x="-570" y="510" width="120" height="60" as="geometry" />
        </mxCell>
        <mxCell id="mYZ1RcpmayhiG7XBKgf2-28" style="edgeStyle=orthogonalEdgeStyle;rounded=0;sketch=1;hachureGap=4;jiggle=2;curveFitting=1;orthogonalLoop=1;jettySize=auto;html=1;fontFamily=Architects Daughter;fontSource=https%3A%2F%2Ffonts.googleapis.com%2Fcss%3Ffamily%3DArchitects%2BDaughter;fillColor=#e51400;strokeColor=#B20000;" edge="1" parent="1" source="mYZ1RcpmayhiG7XBKgf2-17" target="mYZ1RcpmayhiG7XBKgf2-18">
          <mxGeometry relative="1" as="geometry" />
        </mxCell>
        <mxCell id="mYZ1RcpmayhiG7XBKgf2-17" value="8-订单优惠处理器" style="rounded=0;whiteSpace=wrap;html=1;sketch=1;hachureGap=4;jiggle=2;curveFitting=1;fontFamily=Architects Daughter;fontSource=https%3A%2F%2Ffonts.googleapis.com%2Fcss%3Ffamily%3DArchitects%2BDaughter;" vertex="1" parent="1">
          <mxGeometry x="-360" y="510" width="120" height="60" as="geometry" />
        </mxCell>
        <mxCell id="mYZ1RcpmayhiG7XBKgf2-29" style="edgeStyle=orthogonalEdgeStyle;rounded=0;sketch=1;hachureGap=4;jiggle=2;curveFitting=1;orthogonalLoop=1;jettySize=auto;html=1;fontFamily=Architects Daughter;fontSource=https%3A%2F%2Ffonts.googleapis.com%2Fcss%3Ffamily%3DArchitects%2BDaughter;fillColor=#e51400;strokeColor=#B20000;" edge="1" parent="1" source="mYZ1RcpmayhiG7XBKgf2-18" target="mYZ1RcpmayhiG7XBKgf2-19">
          <mxGeometry relative="1" as="geometry" />
        </mxCell>
        <mxCell id="mYZ1RcpmayhiG7XBKgf2-18" value="9-合同号生成" style="rounded=0;whiteSpace=wrap;html=1;sketch=1;hachureGap=4;jiggle=2;curveFitting=1;fontFamily=Architects Daughter;fontSource=https%3A%2F%2Ffonts.googleapis.com%2Fcss%3Ffamily%3DArchitects%2BDaughter;" vertex="1" parent="1">
          <mxGeometry x="-160" y="510" width="120" height="60" as="geometry" />
        </mxCell>
        <mxCell id="mYZ1RcpmayhiG7XBKgf2-19" value="10-订单提交信息填充处理器" style="rounded=0;whiteSpace=wrap;html=1;sketch=1;hachureGap=4;jiggle=2;curveFitting=1;fontFamily=Architects Daughter;fontSource=https%3A%2F%2Ffonts.googleapis.com%2Fcss%3Ffamily%3DArchitects%2BDaughter;" vertex="1" parent="1">
          <mxGeometry x="-160" y="690" width="120" height="60" as="geometry" />
        </mxCell>
        <mxCell id="mYZ1RcpmayhiG7XBKgf2-34" value="订单终止" style="rounded=0;whiteSpace=wrap;html=1;sketch=1;hachureGap=4;jiggle=2;curveFitting=1;fontFamily=Architects Daughter;fontSource=https%3A%2F%2Ffonts.googleapis.com%2Fcss%3Ffamily%3DArchitects%2BDaughter;" vertex="1" parent="1">
          <mxGeometry x="-540" y="960" width="120" height="60" as="geometry" />
        </mxCell>
        <mxCell id="mYZ1RcpmayhiG7XBKgf2-42" style="edgeStyle=orthogonalEdgeStyle;rounded=0;sketch=1;hachureGap=4;jiggle=2;curveFitting=1;orthogonalLoop=1;jettySize=auto;html=1;exitX=1;exitY=0.5;exitDx=0;exitDy=0;fontFamily=Architects Daughter;fontSource=https%3A%2F%2Ffonts.googleapis.com%2Fcss%3Ffamily%3DArchitects%2BDaughter;" edge="1" parent="1" source="mYZ1RcpmayhiG7XBKgf2-36" target="mYZ1RcpmayhiG7XBKgf2-41">
          <mxGeometry relative="1" as="geometry" />
        </mxCell>
        <mxCell id="mYZ1RcpmayhiG7XBKgf2-43" value="否" style="edgeLabel;html=1;align=center;verticalAlign=middle;resizable=0;points=[];sketch=1;hachureGap=4;jiggle=2;curveFitting=1;fontFamily=Architects Daughter;fontSource=https%3A%2F%2Ffonts.googleapis.com%2Fcss%3Ffamily%3DArchitects%2BDaughter;" vertex="1" connectable="0" parent="mYZ1RcpmayhiG7XBKgf2-42">
          <mxGeometry x="-0.1384" y="1" relative="1" as="geometry">
            <mxPoint as="offset" />
          </mxGeometry>
        </mxCell>
        <mxCell id="mYZ1RcpmayhiG7XBKgf2-36" value="订单状态是否为待盖章 待上传合同&lt;br&gt;以及echopId不为空" style="rhombus;whiteSpace=wrap;html=1;sketch=1;hachureGap=4;jiggle=2;curveFitting=1;fontFamily=Architects Daughter;fontSource=https%3A%2F%2Ffonts.googleapis.com%2Fcss%3Ffamily%3DArchitects%2BDaughter;" vertex="1" parent="1">
          <mxGeometry x="-570" y="1070" width="180" height="140" as="geometry" />
        </mxCell>
        <mxCell id="mYZ1RcpmayhiG7XBKgf2-37" style="edgeStyle=orthogonalEdgeStyle;rounded=0;sketch=1;hachureGap=4;jiggle=2;curveFitting=1;orthogonalLoop=1;jettySize=auto;html=1;exitX=0.5;exitY=1;exitDx=0;exitDy=0;entryX=0.48;entryY=0.055;entryDx=0;entryDy=0;entryPerimeter=0;fontFamily=Architects Daughter;fontSource=https%3A%2F%2Ffonts.googleapis.com%2Fcss%3Ffamily%3DArchitects%2BDaughter;" edge="1" parent="1" source="mYZ1RcpmayhiG7XBKgf2-34" target="mYZ1RcpmayhiG7XBKgf2-36">
          <mxGeometry relative="1" as="geometry" />
        </mxCell>
        <mxCell id="mYZ1RcpmayhiG7XBKgf2-38" value="调用&amp;nbsp;1.3.3 作废合同" style="rounded=0;whiteSpace=wrap;html=1;sketch=1;hachureGap=4;jiggle=2;curveFitting=1;fontFamily=Architects Daughter;fontSource=https%3A%2F%2Ffonts.googleapis.com%2Fcss%3Ffamily%3DArchitects%2BDaughter;" vertex="1" parent="1">
          <mxGeometry x="-540" y="1430" width="120" height="60" as="geometry" />
        </mxCell>
        <mxCell id="mYZ1RcpmayhiG7XBKgf2-39" style="edgeStyle=orthogonalEdgeStyle;rounded=0;sketch=1;hachureGap=4;jiggle=2;curveFitting=1;orthogonalLoop=1;jettySize=auto;html=1;entryX=0.5;entryY=0;entryDx=0;entryDy=0;fontFamily=Architects Daughter;fontSource=https%3A%2F%2Ffonts.googleapis.com%2Fcss%3Ffamily%3DArchitects%2BDaughter;" edge="1" parent="1" source="mYZ1RcpmayhiG7XBKgf2-36" target="mYZ1RcpmayhiG7XBKgf2-45">
          <mxGeometry relative="1" as="geometry" />
        </mxCell>
        <mxCell id="mYZ1RcpmayhiG7XBKgf2-40" value="是" style="edgeLabel;html=1;align=center;verticalAlign=middle;resizable=0;points=[];sketch=1;hachureGap=4;jiggle=2;curveFitting=1;fontFamily=Architects Daughter;fontSource=https%3A%2F%2Ffonts.googleapis.com%2Fcss%3Ffamily%3DArchitects%2BDaughter;" vertex="1" connectable="0" parent="mYZ1RcpmayhiG7XBKgf2-39">
          <mxGeometry x="-0.2274" relative="1" as="geometry">
            <mxPoint as="offset" />
          </mxGeometry>
        </mxCell>
        <mxCell id="mYZ1RcpmayhiG7XBKgf2-41" value="直接修改订单状态" style="rounded=0;whiteSpace=wrap;html=1;sketch=1;hachureGap=4;jiggle=2;curveFitting=1;fontFamily=Architects Daughter;fontSource=https%3A%2F%2Ffonts.googleapis.com%2Fcss%3Ffamily%3DArchitects%2BDaughter;" vertex="1" parent="1">
          <mxGeometry x="-290" y="1110" width="120" height="60" as="geometry" />
        </mxCell>
        <mxCell id="mYZ1RcpmayhiG7XBKgf2-44" value="说明还没调用echop" style="text;html=1;align=center;verticalAlign=middle;whiteSpace=wrap;rounded=0;fontFamily=Architects Daughter;fontSource=https%3A%2F%2Ffonts.googleapis.com%2Fcss%3Ffamily%3DArchitects%2BDaughter;" vertex="1" parent="1">
          <mxGeometry x="-370" y="1150" width="60" height="30" as="geometry" />
        </mxCell>
        <mxCell id="mYZ1RcpmayhiG7XBKgf2-46" style="edgeStyle=orthogonalEdgeStyle;rounded=0;sketch=1;hachureGap=4;jiggle=2;curveFitting=1;orthogonalLoop=1;jettySize=auto;html=1;fontFamily=Architects Daughter;fontSource=https%3A%2F%2Ffonts.googleapis.com%2Fcss%3Ffamily%3DArchitects%2BDaughter;" edge="1" parent="1" source="mYZ1RcpmayhiG7XBKgf2-45" target="mYZ1RcpmayhiG7XBKgf2-38">
          <mxGeometry relative="1" as="geometry" />
        </mxCell>
        <mxCell id="mYZ1RcpmayhiG7XBKgf2-47" value="是 代表已经签署" style="edgeLabel;html=1;align=center;verticalAlign=middle;resizable=0;points=[];sketch=1;hachureGap=4;jiggle=2;curveFitting=1;fontFamily=Architects Daughter;fontSource=https%3A%2F%2Ffonts.googleapis.com%2Fcss%3Ffamily%3DArchitects%2BDaughter;" vertex="1" connectable="0" parent="mYZ1RcpmayhiG7XBKgf2-46">
          <mxGeometry x="-0.0889" y="-3" relative="1" as="geometry">
            <mxPoint as="offset" />
          </mxGeometry>
        </mxCell>
        <mxCell id="mYZ1RcpmayhiG7XBKgf2-50" style="edgeStyle=orthogonalEdgeStyle;rounded=0;sketch=1;hachureGap=4;jiggle=2;curveFitting=1;orthogonalLoop=1;jettySize=auto;html=1;fontFamily=Architects Daughter;fontSource=https%3A%2F%2Ffonts.googleapis.com%2Fcss%3Ffamily%3DArchitects%2BDaughter;" edge="1" parent="1" source="mYZ1RcpmayhiG7XBKgf2-45" target="mYZ1RcpmayhiG7XBKgf2-48">
          <mxGeometry relative="1" as="geometry" />
        </mxCell>
        <mxCell id="mYZ1RcpmayhiG7XBKgf2-51" value="否 应该是还没签署" style="edgeLabel;html=1;align=center;verticalAlign=middle;resizable=0;points=[];sketch=1;hachureGap=4;jiggle=2;curveFitting=1;fontFamily=Architects Daughter;fontSource=https%3A%2F%2Ffonts.googleapis.com%2Fcss%3Ffamily%3DArchitects%2BDaughter;" vertex="1" connectable="0" parent="mYZ1RcpmayhiG7XBKgf2-50">
          <mxGeometry x="-0.1438" y="-1" relative="1" as="geometry">
            <mxPoint as="offset" />
          </mxGeometry>
        </mxCell>
        <mxCell id="mYZ1RcpmayhiG7XBKgf2-45" value="状态是否为待上传合同" style="rhombus;whiteSpace=wrap;html=1;sketch=1;hachureGap=4;jiggle=2;curveFitting=1;fontFamily=Architects Daughter;fontSource=https%3A%2F%2Ffonts.googleapis.com%2Fcss%3Ffamily%3DArchitects%2BDaughter;" vertex="1" parent="1">
          <mxGeometry x="-565" y="1260" width="170" height="100" as="geometry" />
        </mxCell>
        <mxCell id="mYZ1RcpmayhiG7XBKgf2-48" value="" style="rounded=0;whiteSpace=wrap;html=1;sketch=1;hachureGap=4;jiggle=2;curveFitting=1;fontFamily=Architects Daughter;fontSource=https%3A%2F%2Ffonts.googleapis.com%2Fcss%3Ffamily%3DArchitects%2BDaughter;" vertex="1" parent="1">
          <mxGeometry x="-290" y="1280" width="120" height="60" as="geometry" />
        </mxCell>
        <mxCell id="mYZ1RcpmayhiG7XBKgf2-49" value="" style="shape=image;verticalLabelPosition=bottom;labelBackgroundColor=default;verticalAlign=top;aspect=fixed;imageAspect=0;image=data:image/png,iVBORw0KGgoAAAANSUhEUgAAAwwAAAD/CAIAAADT88YGAAAgAElEQVR4Aey9i1tM3/v///2fpppqpnY11UxFmcLIdKAwCMlQKIaKpBPCoDII6dVJSiEkkY6ig6RUVxPzqel8nNP+7d+1DzOzp6bMeL28C/e6upq1z2s91tprP/e97rX2/8NWL6g1mv8bGVNBAAJAAAgAASAABP5WAtMzsyNjE6snRla68v9baeMv3gYi6W+9IyDfQAAIAAEgAAQoAiCSzKstEElwiwABIAAEgAAQ+MsJgEgCkfSX3wKQfSAABIAAEAAC5gmASFpOJGkVI2MLCwvmscFaIAAEgAAQAAJA4E8nMDUzqwSfpKVCCUX/P8XI2Mzs7J9eASB/QAAIAAEgAASAgBkCCwsLo+OTE1MzS0XCWlizmo7bGIbNzM7/38jYxNT09Mws/AEBIAAEgAAQAAJ/FYHR8cn/U45rdbq1IImWpmGVRRKGYfMLqtGJqZHRCfgDAkAACAABIAAE/iICYxMTUzNrViFhGLb6ImmpcIM1QAAIAAEgAASAABBYdQIgkla9CCABQAAIAAEgAASAwFokACJpLZYKpAkIAAEgAASAABBYdQIgkla9CCABQAAIAAEgAASAwFokACJpLZYKpAkIAAEgAASAABBYdQIgkla9CCABQAAIAAEgAASAwFokACJpLZYKpAkIAAEgAASAABBYdQIgkla9CCABQAAIAAEgAASAwFokACJpLZYKpAkIAAEgAASAABBYdQIgkla9CCABQAAIAAEgAASAwFokACJpLZYKpAkIAAEgAASAABBYdQIgkla9CCABQAAIAAEgAASAwFokACJpLZYKpAkIAAEgAASAABBYdQIgkla9CCABQAAIAAEgAASAwFokACJpLZYKpAkIAAEgAASAABBYdQIgkla9CCABQAAIAAEgAASAwFokACJpLZYKpAkIAAEgAASAABBYdQIgkla9CCABQAAIAAEgAASAwFokACJpLZYKpAkIAAEgAASAABBYdQIgkla9CCABQAAIAAEgAASAwFokACJpLZYKpAkIAAEgAASAABBYdQIgkla9CCABQAAIAAEgAASAwFokACJpDZYKqkN/LlU61fTEOBUmZlQ/eZafuzYcBQSAABAAAkDgDyMAIulnCnR+oO2DfFpnPHTqTXZCenbh8/f94xrjWuti6EhrmSz9xL6gdW7Cq5+01h2M7z37/lKgI4MMtt4xFd9pCbT+bHAEEAACQAAIAIG/nACIpJ+oADNVsRwbhj0nQHT28QCuRKaexLja4OqEGZz99WeliW7o3i4WKXHs+OmtausSpht6fNSHSUkkBsMG2SnrWlj+FAsVYupahkMsjdi4xr5ULX9m2AIEgAAQAAJA4A8hsMZEEjrx9X1DfX19fWO30lKxoZsd7v/c/r75/ceufuW8pUfh5feTR84+j3UnJJGNR9yLGQzDZqqOc0iNtFX65UcmIN2351fjJWaDWEiehsGwdQ86bGaX+Ow3Zuud9ltVfMBi0cNcF/NoYDm7FogksyBhJRAAAkAACAABI4E1JJLQqfb7Yl8H0qBhf/DRrDGVZmOa4ZaCjMMhPs5G+wmDwXQL2He+qH1iRXecnz8ST8hU1XFKI3El1XMYho4+OoQQGsl2naSsvXOZ8OnLtxk8VdqOzM30FFtqwMH3Y4bdXopitiv/sK89dRqmt/jqBZFeazF9xPmf55YegmEGkWTL8d+23aIQyietZWBJMgcU1gEBIAAEgMCfR2CtiKT53keSzU6E1CAe9z8USQvNqfxltQZrS0bj9HKF9fNH4mdER4oPIEQSbX2Tm1QYppMbeskooWL+x8Zd8grvpaKJJNsfBhuGDX0fh/A7prma6ymL30IqNAaDYcfdd/fTHIZONF4K1q+0QYRJlf1LOt4MIol9pHLJRtNr6JemSw4QUgxEkp4I/AIBIAAEgMCfTWAtiCTN0MvUUFdbE23xQ5GE6b6Xij1sGAw7ZEO4WJKUcj4hJtzH0OXE2v1AsZw16eePxDBd/60w0tjFFFzu1GKY+sOFjcuKNXqWlogkpihvGFX3vi55/PxNc+e3GXSh7vK+iEjxUUnG469aDFW+zQhGmG5BiQ8/mxN8OuX73KMBRl3p4BdT1DNP1VZ0rOHydtLww8AdlAQn81pH6T2RdJE0O1ibf+f2iiG38N23CRBJf3ZbALkDAkAACACBRQRWWySho43XRFxSZdg4bw70owTHj0UShukUz3OynvUSnVhEttCRR2I30hpluz65aXnX558+cr7xnJ8dKX3s9xVPYOjIo0NUJ5QzP3iT/uKewv0HF4dDcffacQ8hgyUJF0nqtgsB+PnsNl5qX/gsDSRyz9x+a1Cn7S8W+1CdaCz/Y0VfaPYe3eiHgoQQjlGb2XnuuvJ2hC6CcE+pTw8O+1G9l3hXnXuQJPfdN8rlmi6SJqtPUAmnizqTuK1XYt0oiKRFNw8sAgEgAASAwJ9NYNVF0lRDmgAft27nKbrWKC+JpHSBJSJpacloOy9T/j7MkJz+RaJh6e60NRYdiX4viCC72hgMBi6SZptS/EmpYuef3tJ7K4xcIPQT7eQmUbpIUigeiPAM2/IS3i6MlxwgDGG2vudJfYeONd/c781kMNiBKbVKyi6mk1fGB7pSQs1EyFi04Oiz68KrEZpPEvtIJYgkkwKCBSAABIAAEAACJIHVFkkYhql782IikqvkagwbK4igzCM/I5LQyeaMQNJtBhHlEWPzLSxmy46ceZekNyMRIim/QSok5yWycY0sUWjkt60VSfJqCekDbufg5Mx2oKQPvqAPTo5MBoPpSC4iG5LqMN1QeYw3uaeNM38jbdj/sirJ3pOnNzsx/SQvRlBTkTSvmhxR/CAop1RTYEmysDrBbkAACAABIPBnEFgDIskIEh15ILJSJGk+PbyQmpJyLuGkWBRAKgEbJPDMs6EfjcTHrD1S3SEVGjuvGAz7CFnxcR7hSeUYdP2TBtMZRJKdb8TZFJOQUdyun1qIZkm6++bKFiq/ywoc+gYbz9O1OK2pd+c3cQLEN2rk02/ShAH+PwgBYZcbhz8UJIbx3EKlbeRgN3p32wKGzSt6Py0zKq+zs7NrYFyLYeC4baypEAMCQAAIAIG/gcDaEknDedaKJMPDnhQTjt47k8t6zA56X1yaVh6pfnfG28S33H5f8dj30kMcW3vBhVbcYdookujChozbR5biEyrhgSaS7rW8yqM8pm/GBzsRuzL5R6TL+VDfKXgrJ0+imZ9fbgYkcgez/xfm5vXO7IbcE6PbNK1p/BV68JiiByMoiCSzTGElEAACQAAI/LkE/jCRROgMe154ckWf3nKzXNkZZAJN0qxwJPotdweTwbBxdkFojke6/oJ02UdyTJmFIklD+WozmLvz9Y5G6PjTY/hIPQaDKZS2jeo/v0b/nZhWmfpYaeemDN9po++4XHxiap5mXTPkHkTSchUE1gMBIAAEgMDfTuB3F0mYakqpVA5/H+xpe/tYFh/Coaw9TP+Uxh8YlKw8Ut10bp0dIpLdPOJMSjF8dBs9GEUSMyS96o1JqPs0rJc46qbzvkQi7SOKqBNouqRCymGdpthMo8ygLJMPnqjfJpB9faa7Lb9k55f63mh9WkYkMYPPl1fpw9PcmPWEfQksSfRyhjgQAAJAAAj8LQR+e5FkUlDo6MOD1PAz/bREJtuXX/jxkaiyMGb/3d6ZZzE/FEkrjm5T6Qfcs8QVhAlKN5C3Rz/14/Ia538jkmjdghim7boqIKxmIJKWrziwBQgAASAABP5cAn+WSMJonkMrKpWlBfrjI9GJ0XEUW7BAJDFDL1TjH6CjhYaPg+R8TuhowR5Cedh4nnqtwjBtX95ew6yPDAbDcePpghq9FeqF7BCP9BWyWxdfM0lPtcGSZMPi8jetEDZ4kiPwLLIkgUiiM4Y4EAACQAAI/N0EfhuRpBvvrikrKqn6OEz0GaGTPW29k/ouLH0ZzjSl+FMOyJQGwR2qf/pI/Wnpv5aIJDP2IDv/jA9EwjWtaRvIPizBlU+a6ZZMIZvcnWnPJOfBdODHluEeVXNdeZGURHLYdL5uUu9zTabGIJKYYbfliznQEqz9ck1IiDKLRBLDAfHkGgKH+iweWJJoQCEKBIAAEAACfw2B30QkaT9do6YkYq5LfIOPEeuWbmWyvIIiJWnX7+QXlRT/kys9cyDA0G1l63W6hhhPZnrkrBVHmq8D/1IkoSP5u8mJBFgHHjTmRnhSPlSskOtN7y4Jqc+q2HJCY44IXUjRZMeLKvi6ZPbwXySSzOg7BgNEkvm6AGuBABAAAkDgzybwm4ik6Yf6qbgZTOE1vUgy+0THVzoGJLzEp0zEMMz0yC9aUl5ZcqT5grdEJNmt35NwzjScz3o5hNt7pp/EkNrHxsnbx41SSDZIuOwz/q3c788TNhk+P0ek0Y4XmddlzgP914gkO5+dcZIlIf5WwzSGTRbvI2fqdI19+aOhg+bZwVogAASAABAAAr8Tgd9EJGl7ZGH6eYRSGjEMQ0eqL+4JcCNH49Mkjx3iJzpb8HHc0DdleuS8FUeaL0ZLRNLy7lCTT49yCPuQjXuYiPgcC4PB9I4pH9Jh6Ozgu4L0SL4zaT/S58kO8d1++Kz0fvmrls9y5YzBomQQSTYuATv2rhDC+KR5zaLuNhOfJAybHxsenZ7X6DBUM9lTKOYSos6GG18LIsl87YC1QAAIAAEg8CcRWFMi6XcA+29Ekk6eJyKlng3n2LPhhuQNdrYcUVZl+Y0kcaiPE2VXIuSRA4tFXyQlkw2yr0DPyCCS9GrqR78riST9SRf96nqzgpbIUAZzm8yaT74sOicsAgEgAASAABD4XQiASLKypP6NSEJHG6/v4TEZDFuupHoGQxUvcgs7Z3Vj1afJ+YgIncP0EMberJXPT3Q/zZKI+AjliI5/LW7r1Y6llqQfiSP99p8QSZi6MWndIq1m4xZZTHQcWskNdgcCQAAIAAEg8LsRAJFkZYn9G5GEX0ojrzoj3JbZbpzXEcNQZWWMpz2yYUdsZmH9oKkH0sLwp9pS2YWEmAORmbVTxsQaLElMYcabz93Lhq6X5zYSOstUJKlqkgPxj74FCFNW6jubfHyU5+ri6urq5sZx5/oGRpz55+OiYXbGJEEMCAABIAAEgMAfRQBEkpXFiU4NfSa+Bds1OLFo5L1mtJ/8SuzSTaYXUasNBiFqAzo7OUWXTab7m12a/d5DXO1T/+iKR6qUfeR+PQpT+WX2rLASCAABIAAEgAAQoAiASIKqAASAABAAAkAACAABMwRAJJmBAquAABAAAkAACAABIAAiCeoAEAACQAAIAAEgAATMEACRZAYKrAICQAAIAAEgAASAAIgkqANAAAgAASAABIAAEDBDAESSGSiwCggAASAABIAAEAACIJKgDgABIAAEgAAQAAJAwAwBEElmoMAqIAAEgAAQAAJAAAiASII6AASAABAAAkAACAABMwRAJJmBAquAABAAAkAACAABIAAiCeoAEAACQAAIAAEgAATMEACRZAYKrAICQAAIAAEgAASAAIgkqANAAAgAASAABIAAEDBDAESSGSiwCggAASAABIAAEAACIJKgDgABIAAEgAAQAAJAwAwBEElmoMAqIAAEgAAQAAJAAAiASII6AASAABAAAkAACAABMwRAJJmBAquAABAAAkAACAABIAAiCeoAEAACQAAIAAEgAATMEACRZAYKrAICQAAIAAEgAASAAIgkqANAAAgAASAABIAAEDBDAESSGSiwCggAASAABIAAEAACIJKgDgABIAAEgAAQAAJAwAyB1RdJOnnN3fu1Qzoqcehka4nsWY8WX9QNVOcWNCpRQ7pVk5PzhgV9RNvz7Gb+u2EdOj0+SRym32Ddr2pqasG6I6zde6btUXbx+3EiO6jiSUpUxotRY970Z5ttf5RT0aXSL+K/6Hhr/uWCtl+bvOmPpdklrRNLE0RPiUVx7VhnTdOgVUWh/Volu1M9oNV+b3nzaXJRGnSK5qcv2ofVxoure16Xve75YVq1I5+bGpp7xhadz3geK2LopOL7NFlJ0ZHnmZKrLxXE0nRXfeuwxsyJtD1Pc/LrRyy7tra/rvJN7xS+s27gTcnjVvLkZk5rugodbb4nLTGtLaZ7/PSS7lvt/ayy9jmLT7BiGWI/m0PMmizqxrtq6r/SKsrSxGv731a+/UqQ1m/EE37P2ALpV1v/O/2p+Hr+h2mTA1FF9S1ZjdzkfiZ2UPW8qfqgIO/p2fayrHu13/RtoOkJfmnFo11KN/nl9bvepQk17jLdVpqdV2dSNTW9VbLcGrnZlBsP/HHsb6geBAVtd1FKSqGlt5VubqRfTj4x6Aw1U9++Di1uJjFN+4NzaY+6V6z+9LNg/2X7iGHYL6weJsn+ny+svkhSv03w8U1q1BetblC23eVIJdF4qGpP87Zc6dQ/bqeqJT4+0WWL78iFyiNIwIWP47UJfh7BiaWfZ34G4ty7pA1ekf/0qDBM+6X8cmqK2ZCeW0dKtrnWggyzexhXpmaWfdannEgRqri3kxWS3Uc0KLr+m6GsHXe/LXmGoor7Iqf9JVMmmVC1ZmxyFeUNLmmL1LMTE+MrhokZ9ZJrmJybWkC/3d3BCr3ZT1wCHXlzO92YFbOxjIJW8w9QXd+dcGePmEozAtDchYl1qlcSD+6pmvmRmrRQrs/uzGq5vj5gmLbnhtAxIKPVuGbhTYIXW5RnENbmTzvVdGEri2HLi6lQLCWAKisTw0J+FLZLSuTkyTVtFwNYYbcHcDzq+rPerIhCQntNvU3ZjHCCzzz6MrsoFQsVYudNme2kftJ0PrxgWqcySjqM0krdkrKBOjt+IXZ47uJKvujkhsW59xkCZGvmMkVh2M3SyOTrq7GpFX14vVU3nfd1FD2wUOVhGLZSGWI/n0PM8izq5AX7XJ3Db/Wa3HcmeVc3p/ixdhB459qfFNZ8ncGwhaqjLj5JDcb6ZXKEFQsz768EI5778noMp0KVT47xHDYkvFpyM0w+ieFwDpeT68eLIhzxFKg7cyLCEyr7aUrl11Y8WuZ08n8iXNihOV+M1ZK2FcMwTde1IGdBRpOSam8mpuY1w4/E7j6SKoWhCZqYUaGYquaUp6ML1wsPHs5Me4SMchF7prMHsZbnyuKcqDZm84+rHlrFx+qa9pElDbbmY4a/w1Zp9/I1VKeovpFwIka8XxQSwHVi2rKE0vahmuyk+JPHD0fuDg/atN7DiWljy95xh2yrDYU09ybBB4koMNPYGXYxiazYPmKWN5BUHi2vHiap+B0W1o5IQpW1WfESiSQ6xNPeV3RCIpFITkb4s922ivFo/OVnckw7WHzQEwm90W5iTiJFUpsGU8tfpG7zP1Tyg4en+WJBh6tO+rH5p18Mzz+P5XjtSZYS4VJy/Jm0K0T06vFA56AsogFGRwv2OHBCjiaeoYJklzfTI/S4YTlBLECQmGcmtp+VRBKq1VJ1zSiSFqqTBP764OPKdHT31S9tjn1I3AsLj8UOjJUDM6JgDMVQZdkJ48nw0+hPoadhKpIUNVlJ+ryZ+U08vBVx2FNAtPDa3rL00xKTcDzcy465XhRnsvLUmXxKMegvSftVNyStc497ibeaanlV+vH0auLhrJ74PvC1OonPEmbW9/X39w98G1dh2Ez1SS4rPKu1Xx8G5ErauYjobGfuXk+nwJSS3CgeIsyoW/yQ0g3lhrMEp/PLlw8PzwWzhNd7iNOp36fxnUV5hKZFh/NErA1prdTDBJ3ueHCU78SLraJshBOdz0uKi4sLzggdeZHSwuLikrLGgXYTkSQJ57KiygwaE39EOO9+8B3FMFVzygZWqLRZnzXD78D3CTWGadpuiDbixWcMvu6OTMSbb1yBF25MoaUqi8ge9Q/99mC3s2dsFaHQrRZJy5Qhyc/iHFqTRXraybjmk1TICbq2bEVTt6RucN6Tj9886rpEb+fIkjH0vxNJGKYdKDroE5BcR76ooYrH0TyX7TeW2g1QRUEE4neukWog5h+LWbyEN2pMI38av9HZc5e0nrKf/9qKZwpQ3SkVcoTSjwaJR9+s6b2zE3FwcjEGTkjy9VgfBxZiXOXi4hFVOIKqak55ie4RLZSm7YIglGw0tb1ZoRvJ2wYdebCbSxNJlt8Av0f1mG25uNUz/CZh4TVtejdw2TZLblf9vUvctpr2zM2c8PP55S/ffewZmlhAMUzbeUWABJ2+eb/g0ZPqd62f+hVT+Juv7lvx0c36Y/3913McbBw4hmeEcQPeIBwrwVsXY/hR+4hZ3kASes+a6mFMxW8SW1WRpH4vOyYWh/uy2H47xdFp2Q9kN2/mXIxcz9oSm3Xz5s2bWfEhCG9PSvbNmzdlxU0jeMfTcGWMl7u47PvoQFcnFT7I9jr5nipvJxbb29s7v3ybMakQlhbFbOvlndtSahVVse6UGMJU1Se5weQ9jqmeG9bjIolFex9Alfm7WUFZXw0vDurGpHWUSNL15Ub4xVXOYMuJJHTyY27UhoCEVyPtD04dFh/Y6s7kBh0Ux0ifffnyuak4Jen228/dZPjceO9cguxl2xf5OPGIXngsdkRiKkanzYexmgRvR0IkYQuDzc+r9OHpnWgf1t5/+uWfP+khdnbUXhA6ClKq2z/1fF9sFFkCUNOazmdRIkldl+jF2hJ7LWulcD1+m4sTZR9UN18U8riLAofNtHV0oa/0Of54rPOKgMmwNQSGnX/GB/VwSSRiWIVHGDbuEnoSdcq6y+Eclv+pp9+0GDbbfmu3h/OmU2Vf6dIabwPYK9tJFh6LnSiRtFCX6M3afrWuA8fVVnDEg7Urq9mArrOzo+l51Vu8AnYNjKkGHsbvFYlEuwQeduz1wSKRSHQwq9nkwaP7mhXENoqkmWoJD4ksUaIYOv4kxt3eyY2D2Nsw2a4cWuDuyO7WYurGpPXcIwVtna2NDa0dnZ0db4qu3yh5i6ero7H8n7J68i741K80uSCdzvLx+eYUPpMdnHDrLh5yU3ZxmP4xWcSC/l9e9Vei4llehpP49azIoeVZ/N50JWRJPeJyXN3c6dUIj/MEqfUEj7naeG+SNKZpTeOzSIvdv7UkoYoisY/hmhw3jj7uiTgwbIy12ksk+0JaENQfL2xkh+YYLF6q6hMcl2NVhGRClbUZYYGxFUTn2y+reJpWS+FxfeNfqKZbMoUuG1PeDTSVPGql+nl0A0WHt0TlD6gVNXklbfQOTFXNKa5H4H4xHkT+iNvmvUR072Y3hC8iogeEnu5GkfSHVQ/Vx0sCJDSrm3qLUg19rK0hwquShM0ObhHXq8jFJf9rWwfnME17pmD9WbK+UveqtvPKFt7pWqPhjVo/L2+lzlzz9IrIhSU8X/ZqyUmJFbWtcmPrZ0n7SIgkyxpILYZZVz2Wb4HW6JZVFUk6eVP5o5KLIo773sySsjrCyrxCdxuBEJ0aGZnTjT466utFBp6bI4OhN+Piq3wC0wxVDFW+L817al0PHCmGuuqkkXv37hHyHBB++N69+xIf9RjFkzUiSfvlmpB9oGTarEgaGm//J3ajE7Ilvqx3Xjf0ruje3RvRfIdNsTfv5r34soChYzUJfA9RLmHAR0eeHvfh7JJ1GEwQuEhyiX2+5O6hKpu6IcmHEknodEdx9qMv5KNzofqEx/qk2so4LuJsCE6OTIadg5Mz4p/SoMY0bXdiIqXLdUEsEknei41mSyo7nhJEL5LqEr2RCFlTKy20lMfzHcOl9bRVH3pHFzqvCFiRpVT/6VxZFMs/o7k1U8DacrWTaoEwbIF4C9dfUaOou77fx8E1NOP1sEGyznUXRPs5IoGS/A+j1EpSJN1/f1vkaiBAj7gESd8/MoikqfKjPINgQRxsbBwQw6JJhCcu1vdPmXS36ZNH/pqIJFRRuA9hBmX16jB1+5VAtiCzXT1XFsUWXqOeqPRj1Y1Jvj4JbxeG7olc8U6j+aqjHEFmhxbD0LG3mdt53ODT+R+X+jDQT7FcXNt7O9wZ8QsV6YPQh2XrGhCuXyR+Iy6/JRpb3AxjWRniSbMmh7hIsiyL6Iy8k6gvddJwtp/kUTOt8rS2tlSeCbDfeKayBV/bPog/w9Gxx4fdmCRX3HZhZ8NkEWXOYjJsqaizs9uBfyzusaBYGh6D1QUn+Q5bzhofVdX3Y3wcglKf1uChtqWfqMro95JIV6Zf6ntDHdbgnYD7SybVM8qh3s7376qfPCrIK21Sor+s4qFT/a0N9WR4e0/MtQ/JeEktLvppaPoyUBPv4xae1T6nU1Sd9PMU5X6Z7ik5HuDqIjj7egzVDJTF8j1CL9UbfP80rVmRsdn68728FS9OK3xrctrahznSCtLx9E+rHqjy0SE3btwLU4cJvKbMN6XwHQWX26n3F528POngherFnpW4SOKJc99QvBo7FSrNMiLJcCvPf8wMZPPPN/7w7RaztH2kRJIlDaR2pta66mFI9u8SWVWRRECi+SSpZyfGx4c/v6tu6RsbHx8fHxtorXnT8W18HO/p1inaqquqqqqev/1Cq1e6gfwIFxu7gAtthhaHhl7XnxPCZLCiykydKWl74FFUUR6P+6eE7s/C+1BIkdQz3N1YX/8mJ8ItIL60rr6hTT5mKpLs2d6CEH0Q+iK2Tj5b9IshwRu5DpRyMBFJTKpvjLntXFKwg09I2DoWJ/hseY9B9mD67jadsvM1nt2q0vT9YSdl5VVVj6URHkhIcuEzHEJjP35DWC6SsLmWjM2u27K61LjT1TUhcrB0wgSDSXcb4WDi7nio3KS/0Lg/XSShk32tzd3tL7LTzLouESvTch43tDT1kH1e+APWbZGy0w3e2s4W5Q0TFkCdUi4nbIG4mdlUJPHjzu515cVWGdpjDMO107pzuM/EcHPeKaGbnQ17Y6zsMcHO+O9Z0QURj2nLdAs8eu3JpzEtZUlSTI0Myc2FoeHJ6XKDSDLmHNP1ZgWxQrKNRkPaNiJKVOLx8XFFUaRTQGoD7sExMTk7+gxlHaAAACAASURBVDw53FA7Qrb4ODlSlqSFllQ+k8EMyvqq+porQjyiK5QonqeVRFLt5+xQzr68r2PK9xcFyMGib/jNMj4+rux5Lj0vq/8+Pjln7m5YnFL6sqY3V4Qgonv9BmeJFbvbLC9DDLMuh5RIsiaLuq/Zwc6iB6bSZuLRIcQ7sY72/qDtvi60Z5AiafrFCa7TLlnHd4VCoRgsEiNekmdyPK5QKMbmDOqaTsiSuLbnupC1674xJZr2iwGsfcX0Ww2dqJb42DLs/FKbel5kZySdjhXvF23lsWzsmEwbBsPWAfFc5x8YKopMKKFUBHnl/7riGfOjqo3nssSPjaYG4yYqppF3dFG33Hxv/ZPClO3unG3pD7IP+bgI4st759SDT24Vdxof0bqh6hxDcxAv8mYFHEomW4eMvCbFYK0sLjQ0+S0pI/6w6oGOFEQ48RJql7Sc6k/Xg5284oxNl7ZbupWlb/OMyDXtmZvYvMDwHTt27AgXeLLC78jVuEiKezpC3ebkz8TUPHWvTtWnbLRf1umCdZh08LWufdRbkixoILWYtdXDmNnfI7ZmRNLC7PT3wgh73JaBBxbTVv+e58xiMsNuy+ffXdohFPq5MvnpencQTPP1/h5PX39fR27woTN57UulEDrZ9bKirn+F+x8vJtxsWZ133I80aeIiSZieRzhIndzLZ7kLD0skktMpBdkx+m44wpLke+zuU/1TuORMoAM/Ls+w/OTGAQ9zIokVeLFxUC6XDyk6s0KZLL+orDffTZ9nepGk6bgfG7mfDBF79kRQUernYOpTvCW2QiRh2ExjSgASeqNzQZEnQsJuD+q0/RXnE/Oo0RBmRBJz3S7CNUyyNBwUGHySiHqu+1ZzO/PSsiEzt9Y4Jgbvn3P023NSf1bc3Uw7XhTB2iolbCezNae9SAfEpSLJP6NpoP1d+dXE7Gb9m9p0yQEWPw2bazrPZzrxxdeKc07u2G4uhB+/U/3kiniTpyC1aZrW3bYwKh/op4cBuRIXrbTuNuO9rPuaFexAuhoVm4aHb/vxV8S5sqglDZaN+8nSe3tYm+IJgVtV9awgKZx/Gu9d0fbl7kKcnNjMoKyupjR/zp48wjV8rizKkSMknPFISqdTSwk2pJnlaZGYQ9gA2fa2DIMJhLhviH/I+oTXNHVgTP1ysbn3lwLZnL15Xw0S6QeO21aUoZU5pESSVVnU9mQFI7vu0dyw0LEysSvv9Gvay4eyMobrYM/ERZKq71YYmxv3gugK/A8dt7EfiyR0vCbej7XBfz0TF0kVlxKTL0hzcguKUsLYnOiSgdE5WgmYlNZ/XPHo5154Eu1kT7sh9TemJCG32QgQP0I39rEgXshxEyaUE53XGnlVcrAb4n8kp3aQ3saiE1/e6nv3nxXGb0Z2ZlZWVVU9KcgUh2zg8bYczXo1QO5v7Q2w5qvH/PNYN0RcvvhRpOrK3o5wokhXUhL+8iLJ0N2mqj7BJUWSgMm0Z+HBgWljQ0Sd/FObcC/F/hIxz47B3J33fX5JmH53zteZFElWto96kYTbxX/QQBprrKXVg175fof4aoskzfjn+5EcR3cvdxdxfl4EO/wO0dRpWtP8fRLrCMPkTGmkU9htsgVceBbj4q8XSdPNl4RIQHJN8WHEJyJWxHMTnq/+biwy6/Ab+30JS1JmVfVDk4dgScW7/GMGkTTyQMQKlBpGr63kk2RiSfrx6Dat/HaYo58oZn98CTUkWDf0TwRv+01zAyKsEkkYNv0uiY8IExPCkRDcfwodf3HSGwm7SYxnMSeS/A9lmNc9FyShbnrHbesw457ZbxJ4zoFHyVOnR/GJwR6qGgnXK+GtGtMN5e9BuLFVuLUQF0kOgjgZ6RFz66TAwT/jgwaba83c6uQdU/Edf+NHxwoiWJsy8UhfD32agGXTpdVqMVobgCeHac82SAy2AxM5jgsYcyJJ03FZwGKx7JEA0reCcLAQiw8Gce1Yh0h7JarTTH3v7RuemWs6v8E7vnZOo9FqtcqCPewlgxlRZbmYw9knu7qHHZT1VatSDFHDYXDrmFdEes5NfZDl1RI3gLo+ab3PmXeUwX6iXOy26dKyXsrLEliyAVVW38iqoc218aPRbZaWofU5xH4mi6iicL9bQGqL/kGt65OFOfmn0wZETr8948fakpQkYgmvfVErm25mlhBj+HAU/9InSTcxqPePbH92NsAxJJP0XcN91tofn/ZzDJc2Uf5rn3pbboQ6bUqvLTjIone3YdrOy5tNTFCLi+i/rXgmZ8cHIjhwtp1Mz6CH1MObWWy9EQLD0Ome51mxQg4b8Qg4mE7dkcR9eSsj0g9hOdh7Bh3L/OdVl3K248HpmGhaiBR6OKwLPxwtFgUgtgw7l017DlNbj10pzbPyBljr1UM3IAt1XNKvMd2ULnBgMEX3FarW3DiKzpEIgYudpzCKghFzKo+4k+k+SQaRdHmLF+mThLt1exi8ubRDz075s7hBQh+H7dJGmpMkFW17GOvtRBWide2jFQ0k/sS1vHpQTZdJDVzrC6spklBlqZjDtLWzs3Pdlfnys1JZaIVIUn3J289FQqRt8/PkFACz/eUnA5B1h/I6f2oOAFORFJzVO9X+6AY5wk0qld4oaZ1cMDpu6+R3wlmhMsMYzP9GJE29vbx7o7uDDcPWM1RyNSuLuvr5vV5Mz11nDWnBI1mVhFuglSIJwyZrE/2YDMedd0nNqftWdMDNZc+DQR1mRiQt392GDjcW3XnSRTyT5t5cidxrSdiXUEIAU72I5ayj5nxARwv2srfJBnW4lGTtzh+ZeB2/znm7jHRpxUUSkxcqJpsRcSiPSYgkDFN9ygp1ctt9/6sGI8aabZVS95mm4+7xiOUTE3mVdKlZJJK8A3DtRQY8IZzlRNJ0tcSLe7Qw/zB3201jhxs6/DCK43n0qd4XSFUb77XxQttcS8oGH1z34Y3I6CKRpGnLORJX2NV2J6OoH6/3dK9/whxlvrtN9foUj59COrOgytIohMkN3G2S34hjuT+nmlBF/j43g1QkjLk2DKYjadgl1xstVBaXoabTyhxiP5fFhdaLAiTkWgduQEMVj8Rc07d2bLo6YW9G01BhBC6S5hSfGmkuMrXXRc6eRi+QhtZ+vZWSqhMr/0yURDox9cGWwbDVx4lfOxvaCnZYTvXTp10LuAg2EUnYbOURxP1E9ZJOGurS/3XFo3fkaZrxuR6orm5DVucrxGzPU6RBcvpdhhBhIpsOS1/2dpZlLBrLKjl15kFzf11ugsjXmemXUDPY1270Dmt+VXDh8FZ3B4QfmVFc+964AY99+DLU+odVD1ztOprezJr+4kM8B3cPVwfRfYWm//WDe+RLX27mAS8mP+YGuXT3XsEbYooXTduFjXqfpNrsCE74HbmqNT2A8uWmiSR08nXiBkd3kexjZ3YIk801HeDqTwQfV6ahuw0vWovbR1ORtGIDqbWqetQumd7JUOXWbGQ1RRKm7Xv3vHXgpX6epPHCCEcvUTzeeX3+WJArEhh9Ho8n7fNzXGRJmuzKi/J2XHesAh/tb5gCANON1KYFIS7Baa8UVhuU9CJJN6UoFCPhufLv90XOgmNXpVLp1Tghsl02OGcUSdou6Ra9e9GyncHO5BQAlluS1O/z0rNLKzNC2ftLpjQ9ldKMjIykfX72iPB4GvGSl3ZUiDhuFKdkZGSWEp7LVosk/HnuauOwNfMj9dKt+SQN4opye7RWiSSiOqNT3+XjWkwzUF9WSoXi86Esj4grJaWlpQ9lMX72G0/ee6jfVlr2shM3DxGmH+F1arpQ3BdpLz6XwMKLWA73aGZigJPgUiuVOHPdbZSaUXVKhSzPY88mtPJb21mhN6kbDLdwIOGpBSZGQHKhUBrJc8Qd6Ilg7G5Tv0lYsQ2gzozhEzbd3IZsvPBRrWq/vJUXWUQKTVRREePlQvfmma884hJ6s3+hJcXP0SMgOCRk+4mijw/2sHfkGqfFUj2PpTyuMWzccpE0UxaFBJOjKHV9sm1OHA8OL0r2ooYMVTmRXGTPAzJdxnRbGNMov7a3GUNr0TGefcilNx+Nq9o/yclBTFaUIXFxK3KI/WwWZxpTNyEBCdXyjlsijvu+AqLfkrg68Q9VqdToOCGSuocr4oVbjEGw3sWOydkgoNYI9+W0G4+zKoaPUnM9ThtIYcYnCT/hUpGEKvJELD9K/i6+5q+qeMR18PbJYYntA3/tc9yg9y3X9DfUfBod7Xz2ooN0PEJHymI2x1VS/ZWY6sP9NFmdQjOjJDqqcaE6J28puyHZsY5lw2CwfHbFUT5JpGdS6qVHBis8ZtUNsNarh7bnmtBxi7TL+PyZqorlekbk1mSHsUU0bzUMW6a7Td10bj2yTrgDD5RP0lzVcU4geU6aSMLQ0Tf/POycxXR92SFschDzopqjaUnxo7rbyC0Wt4/WiCTM+uqxKJ1rfHFVRRLBxui4jTdhfmJpLj7+OE3k6RZ+7g6usmVxApaJSEqrrUnZwj/0Tw/53mUUSfjNOdF0XZJaRfTEWIVe23lZwBVfke73D9u+1TW6clZxX8Q5SozKVb2S8MJMRJLq9Wku98QzgyfdWN+dXSzhlY+j41RQVsf7mPVJMj+ZpK7/1t6AuDI81XqfJDzx6PjrBD6it6ugymfHvb300/EQmbNSJKHK5yfXIcLI3V7srZc/Um+t6nnCAdB6kaR6gfe+P6b1vuOjtljbZMTjiYjTWgWtRkPOy4CPvUbEFWRjq2m7EECOekOVxQfYNjasrZmtsxiGTvV3DUyrlzhuU5YkPPOqwa7eaZR0A9l5lyprvBHgnqox55CDO0SyzIskL97+q4WUrirMEq93M2dJ0g0VHuDofcZnWzOFHsKU2pHRpsuhLtyoEtoE48Q8obvuK1QtKRvcI6SVVVXP63uHK44gnJ2peUXEZYryLu7lGdiZlRAOtGmx8IlOjhZ/02Haz9JAl8OVOKDx53Fe7uJHbQUHfEKufsDXjL1NFnjuvE2NYKSA/PzPSo7bVpQhUeiW5/DfZHHh8x0Rx9HRkbXx7KKuQz0FUiQtHjX4L7vb9CfHMPzdydSMYLFIwnRfs0Mc+anvqe4InaL70wgZ/3UVD085Pu+DPe22onJDzOBKDLk0ZE/bI9vuKpR2EqnSfpZu5RyuIFQSqiwTczyjH5PdtTOdpRkx29e5cjw5rPVHZGXlS0L+aYFLzFOa0exPqh6TJZEsd8krWgukG+4fmNHK74RbJpLmn8ZwdlKzDOvkb4uffZrouCxwoRpaukjSlwwukhy8wo8bfMmMkcjNCK3PlHR1sKh9NBVJKzaQlB60sHroE/07/a4xkfQjn6T5J9EI4ZNEOJaQoE1E0iL2qp7yi0k3an6smYjhwTY2zoKTsgyRS0h2n0ZxX8T2CcO7zw/v8HUysSTp+nJC9GKAuKDl3W2CcxXVj+5KM4ue3qDNuE0MASbfBUxE0mjbw8xoobe3UJx2Ny893MPnaIXRAZoa3YYcyP24tDeaWNNWdJRLTQGAm1oHiqO4zsHX2udHKmO4LOEVk++cmBNJxql8FmHFF3EV5EBzosewSdzvQ3iDfAYtEkna9svBvjEPv+l08tthrJDsTvnn9vaO1qfnAllkCz3zQRrqbOO0r4gYQq96fYrLi3+1kkiikqT5kMFnRRRSSz8nknjOvqF7jJ1WEeKb+NAAE58kTV9eBMcjsthgpdEOPYnzY7u4OnF2ZX806eCdexHLsWH6nnr2/Lyhuw3D5rtLU2IORBB9gRER+w7GXqzspZ4TZp8RLP+Ex8TwdbxfAu+ZGFZhqLJoH4LLbFw9b0C2495kuu+VsX4+EVfvnAv29D9VZVI9cCjqpovCDdElxgFXFKkf/qwgkqwpQ2J2F4tz+FNZJLMy+7UqM2IdywlxZiKbY7Kq+8xMlmalSLKS3Wx9kp+DiRUBs1wkYTpiJs+jT4hRZPiwXBahUX5lxcMwVVfWNidkd56hWuurhbopeb3jnn9M3dRm6876cQ6VEneopjllg2fcizkMU7dlClx35up9D1BFbV7u07bhmfqkdRxBxJHoJSFKyEV+LJLM3QBrq3roWZn8EoY5wZVPRlMSsRl30LBIJGl7bgRxT9ImIycGI7N35JJTJC8nkhwDjmVT/Xa0n9wUEUfvk0Qkw+L20VQkrdhAGnJqUfUwgfWbLPxOImn2U57Y18UZWSe+307r2VS/yxQdzaP3shvY6wbvhDvYIEcqaeYOw0aTiO57+UnRiaLP0wO5OxGhtFuLixUk/CI+KAMfct/UP2/wSdL1y0JZARdpkw4sFUn1ZwlLEjo33F15egPTVxQrFm3hsRgMG3tXX6Eo5nZl9naW8BqZanTkn70sb9Ifly6SyBTOf310wt+RYWNj5xp0OreG3vjjM27bMOnT4LqYBGcHW3tSe+mGq89uZrlH5PXizje6byUHub4JNTQsxINP/1kSDMNlG3P9iSfyebPzcurm5DXJAgfXo8+ocb9aZeMNkScrILlOP9VcX3YIK5y6tTHc08STtb9kQtcnC2VvufpJkb+HZe/IQrxCEp8MaUYbroZzXITRURvZ6+OeKQglxd6RO4j7JLkLRKR+2S3w0Psk0YpuokyMOEc/odbgjYB7TGm/mVH9A6+S+OYsSbpv9SVl702fBsTZjCIJHX1zXuDkfaySkhroTP/rO/GhXDYvKHyjq5sgWlrRrtQ7NS28O7vO/WCyhO/C4TgRvui01JqNmpUQZnyS0JHiAy6CzI553MnBNVxGfrJN9a02I5jNYNhyox50Ty8uLWK8VUgO+S0cs1dfbuXyIsmqMiR6GC3NIfYzWVQNfyyXxgZ72rP9Iq+8HJgdaco9KeQwmS4B+xJzHjfLZ4wj+q0TSVaxQ0drzwY4uIvLyGksKKpWiCRyXIXj+hO40J2pjEY4J6rnfmnF041UJwY4OoflfKbMV8aqoBu8HeZg8uEQYpuu/654R2YD8U6g6qoqqO2f1w0V7HMXXPxAMwyRp1E3JPluPPuMnN2U/hbX8S4z1PXHIsnMDbC2qoeRlkkMt/Y6LlFJhEjadetju9EZrq5EwncQplS9M7jHNbZ/mxspiHDd/YBWiaZqTvsge/KpCbOXE0nmu9vU9Uk+ztT0dEQiLW4faSLpRw2kQSRh1lQPE2ZrfGFVRdJMT23lk9LUbQifmK1+vDDC3sbE65FasMWnAJh6JeEhQZlNQ603I7xYrvydhyVnU9IzLl7KNAmXLl7IuHi/YZTirh3r6xpc8uhYrlDw754sdvlEx7pqcZ30JF8SQDz1p17Hr3MUXqcb7fUiSaOovYV/8+xcbKgnc925RvXcyxPuTJanf+iB2PPSvMe1H/vHqQZJ3ZLGZ7J4m4NCQoIFXmymz+lX44rWZ5WPcw55OYnLJ0c6qx/dvZooDvNDWJ7CGOnzr8M9L7LjQjxZbpvFFx62Ey+cFne3zbyS8FyCMxsNM0yh05NT+MNjobPi1v3i8sqKBwlCZ+eoR4YZXVQd2eEutss6XDEYDKb7rpz2eXS86/m91EObXZmc0JQXQ8Y7ZrrqGMdxveg07ld2PiFqE8IUXO0YfnHCGxHdp3+Ebq4zT+znxN2d1TKBLny6G8Fl8YL2BHEdNl5qnydGt0ly84iQK9lCjm7DVC25pyUJZ5OSkxOjgzyYyN5/hqgSxRsBOzOD4nHHY7a9rb2Z7rZFdUH37U1+bv7Dx08ey46sZ+9+oMCw6VcSL7ewa63T6vGeN8XSU7v5CBMJiLr0uGsSxbTK9w8StnPt7Tmb9sSlyV52Pj3h4XakcmKhvyIp1N2ezRPujZYkJqek6UNqSsr55HNJSWcSztx8Q5SihRJi4cNFARIm6269HIjwJY87P9eX30oRC7mI947EB+9aKi9F8hEXvuhk5r3K+p4xsiDQ0eL9iN4BbFFOaYv4nbdSUdO2MQXpd2KtKENCO1qYQ8yqLCr/70OpNH6fgMO0Q/z3pxQ0KYzPenS696UsXuSH2DJsHD0CT1EffLRKJFnIDseoklclCRGmb9zTRZY8q0QShk03XQhks3wjEmJDXJwPFPdX/7qKN91dEhfAcvA7UUkNokUnaqTHYiUJZ5NTzp3e5+9kx4t7rm8NtH1lKbHHzIZDQncmZ+vBo8TG46fuGUZAqBuS1nO3nySdkEz+J+5eZ4ElyYxIWlPVg3b7mEZRxcODHK+TLw1tLb6ZEEk7M2Un6M5wWxYFYWxR/a1wN9F9w4e10LHaM3zWhnMN+jmoLBJJ6o4S4kuRZ6OFbky+cVAK2d1mUftIE0mmucOWNJAo9jPVY9FZ1/Tiqoqk2ReJm/w2BITE5HXifbiTFXH+4sIlHQOzzyT+4oLv6Gx7NfUFanRmoKHs7vVLaclnE06djD0eE3PksFgsFh/C/4nF0edK6RO+WM5fN1AQKThSamp71skLogWbBYHCoLCozFcKVCcviwmLr6bmVqNOPl13Iy7zxbBuuvaq+JD4cHRMbNItIrHqybEpvY1hUUI0I+0vy0pKiktKHpZXt49oMO1n2R6/dX6bRBdeK7XywuPbREcSr+ZXd47QOrix2f7qnJPiS28IbwBtf80DalDEopMTizpFU0neC8J1SzfS10+zvhn21rRKd27w4bpzPHyER++bfmRKNyXvaG7Uz8treN+pr69vaGhq/ayYw80W6MTbC/sjJNcqOseNb+zE6dHRDyXX088nnzt3Ljk55ZKsqmcWU33OS8ttN3nrRMebC+7XGmaLUn9vyLsQLzl3t2kU1Q09yYiTNVG7q5tlcSnluMOTtrckKebI4cNi8eGjpy8UtCgNV1Y3XQwWppudKFzbfVPElzyhesZQRdFh/6OPFn/SDXftqZEei46Ojok5Hp9Z3k3ME6Mb+do3gaLKFxI/tseWg8m51T30rzDgWvN7S+nV2L1HZO3TQ//EZ9RR08vMDbVWFcikl9JTzuOyKDExISEhXh8SLj4mR6FPVsTxI8kJkqhyWag67b//7iLzj/prSXpWwzSGjvZ0KzRTTVf37xCfk1W2Ua4ruGf5ePfLu2lHRbsSKqmH9UKNhLfVOFWFodgXRdBZ5ZAZ45u5VUPDyg5rypC4koU5xKzL4kznrSOimIz8N/1metaI66Kzgw0Pb1wt6aRGAuDpWMIVU9Umbd52xTD5mp6NhezwjuyeXNF6YWLloFGlUSfRfs4R8U9ULh4tt1B1mh9u9gtzOmXT7RM7NvG3im99mMV+XcUbb8wQ+mxLo0+Zomm/f1J86GBk5IEDB6Pjr1Z0GzuR0eHm0vu0bpzlovfyXxtmI8UtSX7RFvkk/ZbVQ19NzPxqv94TuQecr6cZ6lFFoZgf89CMwZp+PDpenRAmoT4CiW+YbcoIDk6tN7bc2u6bu4Up5Nw4+iN1g3kH+bGP9YoWw7Sf/zktFkcflySmZVV20U0EFrePmDUN5M9UD33if4ffVRVJaxAQzddp+dTpdIan8vI7wZY/j4B2QWU0lS2XPVS3uM9ruT3/B+t16gU1VNafA20NO63mxxXj51JBHPULKh6q+bVJxhbGhhST5l4QddPD5HSt/wLIGj8UHa7JSpK+/LEv7JJ8LH62oFrtGmpOliT3r1gBIumvKGbIJBAAAkAACAABIGAtARBJ1hKD/YEAEAACQAAIAIG/ggCIpL+imCGTQAAIAAEgAASAgLUEQCRZSwz2BwJAAAgAASAABP4KAiCS/opihkwCASAABIAAEAAC1hIAkWQtMdgfCAABIAAEgAAQ+CsIgEj6K4oZMgkEgAAQAAJAAAhYSwBEkrXEYH8gAASAABAAAkDgryDwW4sk3eSX1+966fNRLy6z6bbS7Dxqnm5qm6a3SpZbYzqr9uLDLFrW9tdVvuklpl7WDbwpedy66JMEy50EHW2+Jy0hP7y13D769brxrpr6r0sm8tVvJn61/W8r3341mQJa+7VKdq/WMLm9ye7LLWhmR/q7+0f/i5kHtSOfmxqae0wnJV/uuhas/1+Q1o511jQNWjUjIE75TvWAVvu95c0n46S4FmQIdgECQAAIAIHfgsBqiyRVzSlPRxeuFx48nJn2CBnlIvZMZw9iLc+VtfRLiwRbnfyfCBd2aM4Xc9O64ntouq4FOQsympTjZJiYmtcMPxK7+0iqFNSq8fGJGRWKYdanQ92SsoEVdhv/TIam7WIAOzzXUuE19z5DgGzNbKW+XbFCPdHJC/a5Ooff6l3h4a1uTvFj7SAuPtf+pLDm6wyGLVQddfFJWvx1jvn+hiflpcUFeXdv51y/cjE1KeHkUfEBUZhwsx/PlWXHYDBsXA8UWSetzCR+qunCVhbDlhdTseQLM/hnTJSViWEhPwrbJSVyw6n/J6T77oQ7e8RULv1OiSEZSyKqVxIP7qma+ZGatFCuz+7MajmpZtHJnrqXTQPUpzCWHAYrgAAQAAJA4HchsAZEkpfoHvE01bRdEIRmEXpA25sVupH46C2GjjzYzT1Rbd5cpO6UCjlC6UezphZN752diIOTizFwQpKvx/o4sBDjKhcXj6jCEUIkWZcO/MntvPsB/nFmVXPKBlaotLl/cRj4PqHGJdQN0UZ/k+Dr7shEvPkm6zbHFJpRWZpPUiEnyOxnnsgqpm5J3eC8Jx8nqK5L9HaOLBlDzYsknfx2GJPlsUGwNXjbDlHEwcPHTiYkpV6SZuc+KCmvqqlv/dT3bWxuBTlmSZ2e7czd6+kUmFKSG8VDhBl1S0SHbig3nCU4nV++fHh4LpglvN6jv9yvID3QW5Z+WmISjod72THXi+JMVp46k9++nATH1A1J69zjXuJVUy2vSj+eXj1CfkFA9+2R2NtP8uIHX2rSZxB+gQAQAAJAYI0SWAMiiesRuJ/4MK3IH3HbvJeI7t3shvBFRPSA0NMdF0ma1ishPO7iwHF1c1+8jusb/0I13ZIpdNmY8m6gqeRRK9UXohsoOrwlKn9ArajJK2kz6aBS1ZyyMB1kQc5US3hIZIkSxdDxXMkRUwAAIABJREFUJzHu9k5uHMTehsl25dACd0d2txZTNyat5x4paOtsbWxo7ejs7HhTdP1GyduOzs7Ojsbyf8rq2zvx8Kn/e5OlOeQJUutJYThXG+9NpgPTtKbxWaQ9y6wlCRdJrLDbZpTYf1Q3dcq6y+Eclv+pp9+0GDbbfmu3h/OmU2VfTUwquEhiix5QcsLslRcei52MIsli0pjlpJUzdYlerC2x17JWCtfjt7k4Hakkvq+rbr4oXFL7OGymraMLvfr5HH9MfHkYVZREcnwk1cSC2UzCSiAABIAAEFj7BFZbJGlasyJjs19Sn5h/eStenFb4lv7B+frahznSih4thk71t+q/SP/2nphrH5KhP8xk//r6hqYvAzXxPm7hWe1zOkXVST9PUe6X6Z6S4wGuLoKzr8dQzUBZLN8j9FK90WvG8nTgZYoqCvchzKCsXh2mbr8SyBZktqvnyqLYwmtfllpi1I1Jvj4JbxeG7olc8W6x+aqjHEFmhxb/4vzbzO08bvDp/I/jKIahM/LOVjzUScPZfpJHzcSC/l9L5ZkA+41nKlvwFe2DhMRDxx4fdmOSV8UNLnY2TJYzHlhMhi0VdXZ2O/APbmgiRJLgbMW7RbgWLTZ2fDdvtluxMmsUddf3+zi4hma8Hja4Nc11F0T7OSKBkvwPBl8nUiTdf39b5EqkdPE/lyDp+0dGkfRrSBNGNyTmGaF/ls2XuiHJB9GLpLpEbyRC1qQvDfy3pTye7xguraet+9A7SlUAdWtGAHu7rN8AY9nLwAYgAASAABBYqwRWWyRhuqHqnLQUKsSLvFkBh5LJpYy8JsVgrSwuNDT57ZQpP1VtPJclfmxiojDdQyPv6KIk0Hxv/ZPClO3unG3pD7IP+bgI4st759SDT24Vd84aD7ImHQstqXwmgxmU9VX1NVeEeERXKFHsByKp9nN2KGdf3tcx5fuLAuRg0TfKKUrZ81x6Xlb/fXxyztCvo/uaHewsemDq0jPx6BDinVhHFzDa7utCewYpkqZfnOA67ZJ1fFcoFIrBIjHiJXkmx+MKhWJsDn9UE91tDm7e61YOGw4XfrPqya4Zbs47JXSzs2FvjJU9rjINz4ouiHhMW6Zb4NFrTz6NaTHKkqSYGhmSmwtDw5PT5QaR9KtIo5N9rc3d7S+yDVVPXwWNv2k5jxtamnrIDkO8K9Mt9jmdPqYbvLWdLcobJvrYdEq5fIb+vW5t5xWBI6GjjZUMYkAACAABIPBbEVh1kYROfHn7nHqwPiuM34zszKysqqp6UpApDtnA4205mvVqqQvswpNoJ3u/PScli0NCbrOpO7Ru7GNBvJDjJkwoJ7p9NPKq5GA3xP9ITu2gicayPB3avtxdiJMTmxmU1dWU5s/Zk4c7b+MiyZEjFBtTdDq1lLArkZakp0ViDoKbTdj2tgyDkcdoR0HWJ7w2PIK1PVnByK57tJ4xdKxM7Mo7/ZqWO1RZGcN1sGfiIknVdyuMzY17QXXvLN/dFp77rx2zTev3XNN5PtOJL75WnHNyx3ZzIfz4neonV8SbPAWpTdN6kYR3ty2MygdM3LgG5Eo8f4butl9MWvet5nbmpWVDZm6tcbyiui7Ry5FW4+IvP5Nrx4siWFulRCHP1pz2QiIK6LpW/TaBx9pXZLRWmoKDJSAABIAAEFjzBFZVJGk6HpyOiaaFSKGHw7rww9FiUQBiy7Bz2bTnMLX12NVqpQEmOpwncuBsO5meQQ+phzez2IdJFxK8S2y653lWrJDDRjwCDqbL7hrDrYxIP4TlYO8ZdCzzn1ddSrU16bhSmifmcPbJru5hB2V91aoUQyOk3WWuLIrlFZGec1MfZHm1hMpR1yet9znzjnIunygXu226tLw3MJlJVFG43y0gtUWv43R9sjAn//RWmof69NszfqwtSUkilvDaF7Wy6WZmSZ++r8+8SOq/GcoS3ac/xw1E/0UEHevrGaala9lTabV48ow+Seo3CTymPdugE9kOTOR41YJBJKHK8v8B6WWTa7oBT6xz4NEMQlKlR/Edtkq7taoaCdcr4a0a0w3l70G4sVUTdFMSbmhyDLj4o6I2vQ4sAQEgAASAwBoisKoiCZ0caDc6dDS/KrhweKu7A8KPzCiufW/cgMc+fBk22FkwTfN5X0d9P4cB5nyFmO15ijTHTL/LECJMZNNh6cvezrKMRQOZJKfOPGjur8tNEPk6M/0SasetScdQ652Mon5lYQQukmj9Ust2t6len+LxU94TnWmosjQKYXIDd++lh4hjuUsepQutFwVIyLUOPNeo4pGYy4l6aKJvpqsT9mY0DRVG4CJpTvGpkeZbVHtd5Owpzn1DrWpo7Z9CMW2XdAtrf/Gkpjv/5D765Y3xAxkvf87woem4ezzCeJ7Fscirbw1yz+C4rX6T4B2Q8UHfyaj9ck3IoYskTNP5y0jPvbkSuTiRZpf3JZQQbkWqF7GcdUmNhBhERwv2srfJBnV4klm780cmXsevc94uWzRRAzpWEOG4dCIGQ32FCBAAAkAACKx1Aqsqkkg46Jy8peyGZMc6lg2DwfLZFUf5JJHeIamXHn3WG0gomPizySHgQpv+8UqdRpm/23FDKilGME1/Q82n0dHOZy86SMcjdKQsZnNcpX64kerD/TRZnUIzoyR6ePBTWJWOcctF0kxZFBJM6ildn2ybE8eDw4uSvaghQ1VOJBfZ84DWs0blEptpTN2EBCRUyztuiTju+wqITj39Rjy9KpUaHSdEUvdwRbxwizEI1rvYMTkbBNQa4b6cdg2mfnfGx+VY1YK6KXm9U+i5gmLTUJQT7ee4k5yNgXYVy6K4oQUJT118TvwKhdJInuOBkmnqRCaWpJVFEnnELyGtGagvK6VC8flQlkfElZLS0tKHshg/+40n7z3Ubyste9mJm4dwwYNPS0DURMIXaW/BKIotvIjlcI9mJgY4CS616mWgnhj6/e5OR356q2k11W+FXyAABIAAEFj7BFZVJM10lmbEbF/nyvHksNYfkZWVLwn5pwUuMU9NByHNN6fw7f2NJggKsrbnhnCRo6y2R7bdVSjtJN7/tZ+lWzmHK8gR2soyMccz+jE1kc1PpMPso9vB0d3X3xg2Hy3+psO0n6WBLocrZzEMHX8e5+UuftRWcMAn5OoHfM3Y22SB587bX8x3Vy18viPiODo6sjaerVlmzh1SJC0eU2euuw1V/rOHhUtLdVOyrxthsjGpnrq+7BDWvxFJ3FM1RmOf8dSa9sxNrGVEkhdv/9VCSqsVZonXk8ky+CQRJ/nVpHVfs4JY22SEBCXitB5JrUZDdqDh0ysg4gpSb2vaLgSQo95QZfEBto0Na2tmK16aU/1dA9OGHjfN+9QNjjvv4TNp/SBopscmzdeAHxwIm4EAEAACQOCXElhVkYQqavNyn7YNz9QnreMIIo5ELwlRQi5iKpJUXVnbnJDdeUtML7iBxHHPP6ZiYrburB/nUCkxK4+mOWWDZ9yLOQxTt2UKXHfmGoZn/0Q6zD66Wf4Jj4kR+ngHIdVFiCqL9iEh2X06dPx1wgZk+80vGkz3vTLWzyfi6p1zwZ7+p6qM7sEmRT37tSozYh3LCXFmIptjsqr7TAZPUbtaLpImK464usc+n8UsFknqpovCDdElJp18Jik0LuCWpJ8QSTxn39A9xm6uCPFN3O5igUj670hP4q5dwhukzFwkkrTtl4N9Yx5+I2dPCMnulH9ub+9ofXoukEWK9JkP0lBnG6d9RUQFU70+xeXF11JKETeZOfLJGVGNoBbH0Kkmabg704bJCb/+fmbxVlgGAkAACACBVSWwqiJJn3N1Q5LvxrPPyEkViZkVqX8d7zJDXWkiSTdSnRjg6ByW83nJi7du8HaYw9Lvl+j674p3ZDYQjx9VV1VBbf+8bqhgn7vg4gdT+xSeFovTgWFmRZKZeZLQkeIDLoLMjvn+4kM813AZ+ck21bfajGA2g2HLjXrQbbQ9UDxUwx/LpbHBnvZsv8grLwdmR5pyTwo5TKZLwL7EnMfN8hmaJ5SlIkknzxMhXqdqZjBCJCG7b9TSfJjwaF1ZQoCJJUnbc13ICsnpo11NX2BLfnGR5B5T2m9mUP/AqyS+WUuS7lt9Sdl7U1FLnNgCkfTfkNYqG2+IPFkByXX62UZxa5pxAKDq9SlP1v6SCV2fLJS95eonRf4elr0jC/EKSXwypBltuBrOcRFGR21kr497ptDhUyywd+R+Iy1HOnnuDvaGlJYlFdWU3VyFGBFe/TTx4YLAPfaFOUuc6f6wBASAABAAAv9DAmtFJK3nbj9pnKLGEEvcvc5gSZrtLokLYDn4naik5vFBJ2qkx2IlCWeTU86d3ufvZMeLez5BsdP2laXEHjMbDgndmZytB48SG4+fumdwHcZFkgXpIK5goUha+HBRgITJulsvByJ8yePOz/Xlt1LEQi7ivSPxwbuWykuRfMSFLzqZea+yvkf5fx9KpfH7BBymHeK/P6WgSWF8wqLTvS9l8SI/xJZh4+gReKqMsqRZJpLQ8ZcnvZ22yQifGtzkxkR8Nm5aFPhclj2tuw0dLd6P6N1wflQjcZFkZ2ZiA2rOA3tz3W2Lzqn79iY/N//h4yePZUfWs3c/UFDbfwnpka7n91IPbXZlckJTXgwZfd6mq45xHNeLTp9PSUk5nxC1CWEKrnYMvzjhjYjuD9LU4lxnntjPibs7q2UCXfh0N4LL4gXtCeI6bNSPW5xvSQ1AdhiNlYsya1jUtGcKXPkRR/ducAvJ6jYmxLADRIAAEAACQGD1CKwVkeTrF/0Dn6Tpxgyhz7a06u/GJ4mm/f5J8aGDkZEHDhyMjr9a0W3sr0CHm0vvG0f9Lxu7l/+633BC3JL0w3SQZTVZEcePJCdIogpvoeq0//67i+wu6q8l6VkN0xg62tOt0Ew1Xd2/Q3xOVtk2YpA/2vHul3fTjop2JVQqZjpvHRHFZOS/6TfXs4ZfB50dbHh442pJp95LGE/Hkqtiqtqkzduu0FyGNX0lmblt5EGaD9IwwTl9r5Ch6ukG8w7yo0sM3wtZqJHwtkoXO80bdjeNqJsuBgvTF39Rl9hH231TxJc80RcNqig67H/00ZJvumHoWI30WHR0dEzM8fjM8m7DhFC/gvS3sbcX9kdIrlV0jtOUD55cdPRDyfX088nnzp1LTk65JKvqmcVUn/PScttNDI/oeHPB/drvep9s9feGvAvxknN3m8h8LXRcC+EIpW0mx5gSMyxpFI0F0sxrRc3Dhnpo2AYRIAAEgAAQWFUCa0IkYQtjQ4pJ/ROHzkM3PUxOMIivRDWaX/wcsSwd9AT+wXGdekG9SEL8wbn9D7OGjtXfSsqs7DdXof/Dy8CpgAAQAAJA4FcTWBsi6VfnEs4PBIAAEAACQAAIAAErCYBIshIY7A4EgAAQAAJAAAj8HQRAJP0d5Qy5BAJAAAgAASAABKwkACLJSmCwOxAAAkAACAABIPB3EACR9HeUM+QSCAABIAAEgAAQsJIAiCQrgcHuQAAIAAEgAASAwN9BAETS31HOkEsgAASAABAAAkDASgIgkqwEBrsDASAABIAAEAACfwcBEEl/RzlDLoEAEAACQAAIAAErCYBIshIY7A4EgAAQAAJAAAj8HQRAJP0d5Qy5BAJAAAgAASAABKwkACLJSmCwOxAAAkAACAABIPB3EACR9HeUM+QSCAABIAAEgAAQsJIAiCQrgcHuQAAIAAEgAASAwN9BAETS31HOkEsgAASAABAAAkDASgIgkqwEBrsDASAABIAAEAACfwcBEEl/RzlDLoEAEAACQAAIAAErCYBIshIY7A4EgAAQAAJAAAj8HQRAJP0d5Qy5BAJAAAgAASAABKwkACLJSmCwOxAAAkAACAABIPB3EACR9HeUM+QSCAABIAAEgAAQsJIAiCQrgcHufxaB+Y8FF3Kqv+n+rFxBboAAEAACQOC/ILDaIkn7+db+Tf7+/v4BARsFwvADJy6VfBxb+08sdV1GSEhGndqkCFS1qcJtFxuIlSvlC98WeLJciZoc/ZML09XJISJpq2lKfvJc//vDVj/144URLP+MD5r/fd7hikAACAABILDWCay2SNJ8yPB32JJU9qqmprqqPC/zyCZnVmBm68Ka4KZ5fzki5a05/bFQddzF5XiVaTIXnsYgnBPVKjztK+UL3+Youq/4D0QSOlYmdl139p1pQv49vOVz/pPnNnvCX5V6a9IIIskaWrAvEAACQODvIrAWRBJdMGh7s4T2PmfrjcpENz3U1dra3j+++GV/Qdn7sfVjz4i1AmGZE6pG+9vfv2/7Ih8nVA6GYfPv0wI8KNGzqFZYJJKWy9eKIglVvi/Ne/p5ZtEFzS+iwwURCD+NZkdC54d72lo/fOpXzhs1GL7yY2tr19CU1sx50DnFlw/vP3R/nzVY8JbN+YKy5+P7dvkMdW7dnHKg60NrW88I7WrEJRalw+wJLUz98hfBMDNpJ3O46PpUts0UPYgkM1UCVgEBIAAEgABBYK2JJGymNNLRNfYlKVRm2++LNyCIz8ZNvm5O3hHZ76fIpzOqrM3Y7uGI+Gzc7Mf13paSlxHqEfscP0bbc13ICpX1G573qlcSDyTmGVXc5k+IDlenhHogXL5g8wYe4uiy49YXtfJZfADCtLFh2rNYLDbvVLVJhbFaJNHztZJI0vXnhDAZrKiyaZPrmV/Qye/udBJc7qSkz3T73SP+zvbOXB8vDotJ9SFNt9+L9kfYHn4BfK4ze92+G41jlMIZL4xw3nnh7qmtPK7fxgAfxB7ZHP/kmw5dknMVNl4YgezPq78T6cNiu/3/7d35VxPX4zfwP6rUhAQYQsCEfQkSNApaaqOi1RoRFZRWrVRRqUWLFfel1OJHq4IUUdAvWheEsLgSkB4ROBA22Uky5z5nJplkMkwAq30Sy5sfzGQyucvrpifvc+/NdOGyw00WQiaNhSvCAih1glYbo5ApUwseDTlaKWjHwbs3BJT2wZ1L60UqYVvvoe32Bgjqd6yliQ890zUst4l/vHAWAhCAwLwX8LGQZOm4vCFMsf4yuxQ19mhvPLX0UO0A8704bCzQBcbmPhgjhB6s3KYKXFpQN8S8YHlbsT1W4hc8h5DkoUDry8LFlP58hz1rWPrb/+5jv4knq7crueUzwQflfUOSW79mCkmEHnpRdeOv9nFBhWJPbW3HUwKWFbXa2z1yb3e0fNH3tzvZSbjJPjOjM3Jvd0zg4rx7ZuYaeqix6CulKqOsly1t4FK69LOAlIJadg8YPfQ4b5F/bF4dM2En7PnApXRZ8MLE9GOP2YLYt9PDrcanvWxltPnmNnXAmhL2vGg7hAUSQubQekJEKmEb76HtTANE6ycehp4gJLGDhn8gAAEIQEBMwBdCkiRMt2Hz5s0ZhvTUmNDIr/Kru9h5oPHbWUrllgpuSoXuLdb7RzALcSPlGVTw5vJ3XH9sbUVLJXMISZ4KtL0+mSqP/7ayg1tncxQs8s3OVTmnkOShX+x+Jf5SHFfoez5anx/RBn55rsM+aTZWuVURvKmMm82xlzVakalQ8KTIVO2+WLn+V/ZVJmhQhjIn41Tt3mj52stMCcKeM5fKVp53VDW9nXR/yRr5ogLmBdF2TCuQkDm0XlCPo5KnzGkPbfdYv6ehR0gSIOMpBCAAAQjwBHwhJEnjNhWeOXPmVJ5+IaU/z62U2dqKlkkCY5evXuP4W5W8cIHMUDpuNR3TyZYUvnIsMhFCmB3TillnkjwWSMhI84WM+CC5amlGfsmjt9wmJ2FU4LHNKSSJ98u+qfvDQ5LFeDCeSi9xbP9mgqI7CjNZ01q0VKY72uKSIkOX18oivmd7wiw0xe2vd271YgqUry5hZtGEPWcujc1zXcq8f6rzwYW8TP1STUxkRGSEUi7RHGLnh0TaMb1AMofWe6ikmTnvoe3M/JRY/TMMPZbb2A8D/oEABCAAAREBXwhJXGCwtZ/XUws3lfawi13MFm7/mG3Ft6p4f3eaum1sSNIdNbm++icqt3gOSVXZIfY9SR4LtLNYB1uqzuWujgkI1Oys7GamZ4RRgcc3eScnNGjzn1ycsr8yfsMQoNpZw85H8ZfU3Pv1kULSxMPcKMXGa/aFQWYv1jGdIA8RwvRYkJwG3UMS/8fvs4Qk/qWEHqjKiQxK3P7bg1bzuI3Q3cV6ORuSRNsxnXIurfdQiTMk8RvkaLsHBxZC9LOEmSTehxqHEIAABCAgEPClkETIRMNPSbLoXTXsEtDozS2KYEPpoKDFhAyXGSjltspR7gVbx+kV3HKb7fXxFLnumDNB0V0XVkqD7Bu3PRbIFcQ8jhrztbKUE69tjm/2bMcecv41jgmLRQXNzmkYZnNUY75Gxu0Z54ckQb8+ynLb6J0cdeiWCudaGbsG6bayxjR4rDJLqchwLUySqSf7YuUrL7CdEc6hCEMSr+fCS9n8KF//B1e9pfmQRsqGJPF22POmq8C5tZ4JqdMrmTkkeajf89BP65r7QOMZBCAAAQjMYwHfCkmEHqzOCZclHWJvlDT6IDdWHp9T5tjFTI92GJ8xt0am+//MDKO+ONrEbleymmv2JDo3bpPRyixlYNrJFnaSx9pbk7tI6ucIScRDgbT5lbF1yPF7uJH6g0mB+mJmFctiPBAnW1Zkct2OwPVBsXVcWqcMTs2vfjPGznuNv6nav4wKM1xzLH+5hyT3frGvpRYa251/f3cNcpVMmkoP5R67a9+W5apPcPSuYkuoOueOMycSQoaqc8Ll2r01PewMm3Wos/sdTcYe74sPWpz3l5nt3fDTU3pl6Mar3WxpwnjAC0nCngsvZfY2xUgXH37KKo+1XDRE+ksSmeU2D+1wL3COrRevZJaQJO7gaegxkyT4YOEpBCAAAQjwBHwsJBFie1uyNjjwi1MmppGjL0qytQppkComNjI0yD8gJte+mMX8Zj9FKVNEJ2kTIiKX7803qELse5IImWq5aIiWy8Pitdp4dXhK7qncJQrXLQDECrS+KEoJ8qfCE5J12mgFFfX1qUb7bYosLedXh0mpKO3i5F3cTQScdrT5UdGGuKAF/sGqcLVCJlFot5wzDrKJyXEzSW4ZkX0Lr19MSFrwGf9Pov35hX310PbmbJq/H5VRzu1Xd9bHO6D7rn2jiMp96L7aRw8+Of51tFymiIyJDAuUxx9k9xCNvSzJTlZSao02MZIKjFh1+B53p29h8uGFJOLW81GRn4BZ269kxsjlKs1ibWz4oq0lZQeStPaQRETbwStw5/9K5th60UpmC0ni9Xv8LAkVeMw4hAAEIACBeS7g7ZA0B/5Jc1tzXW1dk6nbPmnDvWW8h7kHInMzycmqbKVj47b9Rcvgm6f1dQ2mHtFf0osUSI/1tjbX19YaX3YOO6aU7CXRI53P6+uaWs2CX745GkFPmNua6+uMz/4e4KaCuOb900dr/+sXb4a5sPW+pbC3S3zCNJiXoOjx3tZmo/F5h+jNJD1UMUvPma3bfW1NdcZnHUOu3WHOskTaMXuBRORdM1XirG36gUhJzEUiQz/9vTgDAQhAAAIQYAU+gZA0+0hNVmWFuIWk2d+CKyAAAQhAAAIQgMCMAghJM/LgRQhAAAIQgAAE5qvAfyIkWU1lRw6X8m8HNF+HE/2GAAQgAAEIQOBjCfwnQtLHwkA5EIAABCAAAQhAgBNASOIk8AgBCEAAAhCAAAR4AghJPAwcQgACEIAABCAAAU4AIYmTwCMEIAABCEAAAhDgCSAk8TBwCAEIQAACEIAABDgBhCROAo8QgAAEIAABCECAJ4CQxMPAIQQgAAEIQAACEOAEEJI4CTxCAAIQgAAEIAABngBCEg8DhxCAAAQgAAEIQIATQEjiJPAIAQhAAAIQgAAEeAIISTwMHEIAAhCAAAQgAAFOACGJk8AjBCAAAQhAAAIQ4AkgJPEwcAgBCEAAAhCAAAQ4AYQkTgKPEIAABCAAAQhAgCeAkMTDwCEEIAABCEAAAhDgBBCSOAk8QgACEIAABCAAAZ4AQhIPA4cQgAAEIAABCECAE0BI4iTwCAEIQAACEIAABHgCCEk8DBxCAAIQgAAEIAABTgAhiZPAIwQgAAEIQAACEOAJICTxMLx5ON5Y8uOJ6k7bh7bBaio7cri05UOLwfshAAEIQAAC817A2yHJ+vL0ukUJCQkJGk2iVpf29fafrjT2f3BS+NeH1d7sxHWnX1oFdVmai1YnJiwyFAvOz/Z04FK6PCG/wTLbdbO9PlmVFaLIujXbZdNf50ZCo9EkLUnVG3YXVbQM067r6GHTzRN7Mlal6pIXL1v5zXeF158O8Adq4u/q4zvXp+m0yUvTVht2FV5t7JtsPr46kRlcwV/imhNPP7ijrpbhCAIQgAAEIPCvCHg7JFka8hP8k3Ov37l7t7qytLggY1GQfHGBceJf6ez7FmqpP5yed39K5G2WhnxNsFIpj99f5/7yxIM90aGhIZIlhSLvcjslKNzrIYkdicU/lNfcq7lz849TufoIf2rFief27tnelufEy4Pi1+89UXL9RtmVcz9t1SnlUZsut9nDDt1zI1Mtj0o/cP7ajdIrxccPZq3fV9FnHWx5UF3F/N36fUe8NC77t1vss+oHpkFe/HJjwRMIQAACEICArwj4QkiS6X/t5r4zra1FOmnknoeu6GEbfvvCaGxuHxDOPUyYWxuNjabe9w1UHgqc7Gtvrq9vaukYmHQMznj9AU3Y9mruKX/ImJC00JCzQRmxs2ac98Lw7Wx1fHZOmtw9JIlUKSzcHpIaLfRo96uG+saW7lH+NA1TBT3eY2o0Gl+8fSecvSKEsxgnk1XZSv5MEm2uv1pc8XKE10jxQyYk8UdiqvmnJEn03topQuiuy+sVAboC4zDvrVNtxenKoLQzbUw7B66sky/MqR7jve52aGsrWirT/WKa3nK3y/AEAhCAAAQg4EMCvhaSyMjV9TJFVpU9mYw2/2qIo6jIxEUxIYER6ccuk+BGAAAajklEQVTr39nDFG2uyV8RJqMiE5NiVRHL84rzU8OybjHvsZp+0clTT7U7E8bknZwwKvOmg1y8QLqnOi81jFLFa5Pi1JQs+MvTLVPmmzs1lMTPTyKVy+UB6m+r3QaNCUmKLdcqdqjCtt58x71E9103KHWF1SdW8EKSSJW0SOFMSErM/il7sTo8QZsUE+JPJe3807lFabj5wuYEKiAsVhOvCgqIWnvscT8XK3kWcSp1yvf7N6pDXMtttvYTKZLP5N9c5+cbrr1uj8KQREavbZAFZ92eJLb2U6n+qpzqUbfrCbE0HdJINT82WQh5d21DgHLrTY+VICQJ7PAUAhCAAAQ+AQEfC0mWjssbwhTrL7MzS2OP9sZTSw/VDjB5YNhYoAuMzX0wRgg9WLlNFbi0oG6IecHytmJ7rMQveA4hyUOB1peFiyn9+Q77NIelv/3vPjaBTFZvVyo9zyRRmRVDD3Ojg9dfMdsDC91ZvCok7Wx728lUGTeT5KFKQoSFD1xKl/oFph6pty9EDT85kOQfm1fHTp+N3NsdE7g4756ZaSE91Fj0lVKVUdbL1Cqw6KrMsVs4P3r00IuqG3+186e7nK+5HQhCEt1fmaWWf3G63UbGyjcFytf/MeR2OfNk8k5OqL++uIcmtLlim1qq1h8qfz4gNluEkDQNDycgAAEIQMDnBXwhJEnCdBs2b96cYUhPjQmN/Cq/uoudBxq/naVUbqngZifo3mK9fwSzEDdSnkEFby53TuAw38CSOYQkTwXaXp9Mlcd/W9khWFgT5hjeYDIzSVRmxYSl8UdNkP7Xt0yDbW0nUkPWXuqxtLtCkqcqxUMSZShzdmqqdm+0fO1lJpmMVmQqFLz+kqnafbFy/a9dhJCR8k1Ci2WMBa+tczxkQpI0fvOxc+fPnSzcn/1VdJDyi6P1I4TQvb/p/UNz7gh0mHzKbChbUviKjUXjbeX56XFBC+ThqVt/Ln/pmPNzVI6QNMdRwGUQgAAEIOBDAr4QkqRxmwrPnDlzKk+/kNKf51bKbG1FyySBsctXr3H8rUpeuEBmKB23mo7pZNxXM0s5UZFJKWadSfJYICEjzRcy4oPkqqUZ+SWP3nKbnOYQkoi15aguIOV4q41YnxZowzaXDxKbKyTNUKWwcGa5LW5/vXPjlcV4MF6+uqSPJrZWZj/P0RbeDM3Q5bWyiO8fMKuLHize/yPGJB5J6JKvDYaMLTv2/HS2vMnsaMy7K+v8qS2VHIur6KnaH6L8U09yI8ZMbA233/stb020XBb/XSU71WW/GiHJpYYjCEAAAhD4VAR8ISRx24Vt7ef11MJNpT3s6hWzhds/Zlux/QdR7K+iqqruNHXb2GCgO8rbBDxRucVzSKrKDrHvSfJYoH2srIMtVedyV8cEBGp2VnYzU0PCHMMbU24miRDbm3NpAUkFzaO1e2PDc+6MEn5ImqFKYeHCX7e5QhJTiHsoJINuIUlgsTWYv3Gb1+iZDwXLbbyLLU/2xUjdUxr7Kt17cZVMmXV72lIe3X97e4R0aVGrM9chJPE8cQgBCEAAAp+IgC+FJEImGn5KkkXvqmEXnUZvblEEG0oHp0kOlxko5bZK5z5iW8fpFdxym+318RS57pgzQdFdF1ZKg+wbtz0WyK9h1JivlaWceG1zhKRsxx5y/jXsQhO73MZMnvSUpFOx3xVsU8ftrWWWpHgzScRzlWxI4hXuOSSRscospSLDtbxIpp7si5WvvNDJbNUqdbegO899Kf3Hy21cXHXvLJl4mBst0Ryoc//xmtV0crl8YValc4XQ9S66+8JXMv68GEKSCwdHEIAABCDwqQj4Vkgi9GB1Trgs6RB7o6TRB7mx8vicMseuY3q0w/iM+b0X3f9nZhj1xdEmdruS1VyzJ9G5cZuMVmYpA9NOtrCLQ9bemtxFUj9HSCIeCqTNr4ytQ47fw43UH0wK1BczO8ctxgNxsmVFJtftCJyj6ppJIoQeKNukWPC5JKngKTtzwg9JnqqcXvgMIYmMPd4XH7Q47y8z28bhp6f0ytCNV9nN7XRf+eYwKu1YM/sbf5v5/j6tlNnE7mzppKn0UO6xu/ZtXs6zIgeeZ5IIsXWXZqplketP3O8YY6f5pswNJdsTA0O/Lvmb6bOtu6Gm/g13a4KJjuq9iwPCv7vruu8AQpKIOE5BAAIQgICPC/hYSCLE9rZkbXDgF6dMDNzoi5JsrUIapIqJjQwN8g+Iya1htw8zv9lPUcoU0UnahIjI5XvzDaoQ+54kQqZaLhqi5fKweK02Xh2eknsqd4nCdQsAsQKtL4pSgvyp8IRknTZaQUV9farR/vVuaTm/OkxKRWkXJ+/ibiJgH09+SCJkpHqHyj+VnX0SzCTN0AdB4TOFJELGXpZkJysptUabGEkFRqw6fM/xizpC6G6XRXhEyg9n9upCXSHJ9uZsmr8flVHO7X/3+HmcKSQRQibayvP00YESf0oVrg6RS+Thad//8dIxt2RpLtQF+PlJ5CGqcLVCJqESM84a2d8eOqpDSPLojhcgAAEIQMBnBbwdkuYAM2lua66rrWsyddtnMbi3jPe0NNQ3MDeTdNxA0fXzK8vgm6f1dQ2mnmnbZZg3ixRIj/W2NtfX1hpfdg47ppTs1dAjnc/r65paza7Cufrf51GkSmal7r0Kp8d7W5uNxucd3IwNrwETvaaG+oaWnnH7zQh4rxBr/+sXb/j/fxH+i+97PNnX/sxYZ2xu7XEfC0Loif6/XzQ8qa01Pmvv/zCs920UrocABCAAAQj8KwKfQEiavd+O/18Zvppnp8IVEIAABCAAAQjMUQAhaY5QuAwCEIAABCAAgfkl8J8ISVZT2ZHDpfwbCc2vQURvIQABCEAAAhD4+AL/iZD08VlQIgQgAAEIQAAC810AIWm+fwLQfwhAAAIQgAAERAUQkkRZcBICEIAABCAAgfkugJA03z8B6D8EIAABCEAAAqICCEmiLDgJAQhAAAIQgMB8F0BImu+fAPQfAhCAAAQgAAFRAYQkURachAAEIAABCEBgvgsgJM33TwD6DwEIQAACEICAqABCkigLTkIAAhCAAAQgMN8FEJLm+ycA/YcABCAAAQhAQFQAIUmUBSchAAEIQAACEJjvAghJ8/0TgP5DAAIQgAAEICAqgJAkyoKTEIAABCAAAQjMdwGEpPn+CUD/IQABCEAAAhAQFUBIEmXBSQhAAAIQgAAE5rsAQtJ8/wSg/xCAAAQgAAEIiAogJImy4CQEIAABCEAAAvNdACFpvn8C0H8IQAACEIAABEQFEJJEWXASAhCAAAQgAIH5LoCQNN8/Aeg/BCAAAQhAAAKiAghJoiz//ZPjjSU/nqjutHnoKe3h/L952tbfXH628KeCoxfutk/+mxV5LNtqKjtyuLTF6vECvAABCEAAAvNJwDdCkqWn7n8FO9an6bRJWl3auqz95+53+uwoWJqPr05MmP6XuOaEz7Z5esMGLqXLE/IbLNNfIXTX7+lKzcEnUyKvfexTw9V7U/SFxilCJuoPaYMi9bsP/fjD/suvvJNTJquyQhRZt7yT0D42LcqDAAQgAIEPFfB+SKIHawvTlFKlbsuhc5dLy65ePJWftW7n1Q8ISZb6w+l59z/0K95jKfRgy4PqKubv1u874qVx2b/dYp9VPzB96Gj8f3y/W0gS9HX82ZUjZ+73fNTZJEEV9p7S/dcNiqg9DyYImfprdzi1/o/+j1rp+3rOLSSJduV9q8L1EIAABCDg+wLeDkn0wO0d4ZLIzOsdYnMajB893mNqNBpfvH0nNrtAj3W3NNQ3vOoadS4cjdcf0IRtrxZMB9iG374wGpvbB0TqESmEiJfiPqC2tqKlMt0vJrGGuV/JPeNa0S+McNwLbs0b73r5smuce++0R+vQm6dG4/OOIXv99EjXy4b6plbzxLQrRU7wQ9Ic+sq1b3rDx8x/v2gwNpl6x6fnmwmzqbG+uWOEFueke0rSqfgDzDwSGbu+UR6V+9jNZeahJ67SHf37hyAT5tZGY6Opd5xMVmUr3WaSbCK9E9USu1BEHacgAAEIQOBTEvBySKI7i/Vyav2V3ulfsIzicPOFzQlUQFisJl4VFBC19thjbqZh4FJ60Mofz3+7RK2KTdREUlIqaeefnTbafHOnhpL4+Umkcrk8QP0tm5VGm381xFFUZOKimJDAiPTj9e/s1XkohEwvRXxIBSHJ2no8RZ6Qz37n298w8df3kUGrL3bRTE36gvPbtSp1nCY2TO4fvrroyaCj0x6aZ31RmCyRJB1+JsxgA5fSA1fkFhoSVBEJmiiFVB6//WrNpW2JYarYxHiVXKpafbqZjVZW0y86eeqpdmd+nLyTE0Zl3mRSFBeSpvd10vma/TLPDZ80Fq4IC6DUCVptjEKmTC14NMT2e+BSOrWu+OHZ9ZHygJCFywpqbogMCiG2jvMrA7WHn02Zq/P1CSGSz/wk8qAgKmZ3zeQsQ88v/XCTZc4g04aRNtfkrwiTUZGJSXEqdcr3+zeqQ7jlNrHeiWkRkQvFP87TqscJCEAAAhDwaQEvh6SxPzdT0lUXzaJfKiP3dscELs67Z2ZSAj3UWPSVUpVRZs9TA5fSpZ8FpBTU9jMJgB56nLfIPzavjpkmmqzerlTyZpLGHu2Np5Yeqh1gKhk2FugCY3MfjDGjMkMh00oRG0VBSCJ0d0k6FbHrHjf5M1q9Q6XYeL2PZmvyC1z+s3GIaYSlqzInzj8m9yFzocfm0QM1RwyGIzVcLnS2gGm2H/VlUfMIc+rd472aBX7+Sbk1rJOl/cIqKjijfJgQMpeQxBQhFOMClIPIQ8MJoYdbjU972ckf2nxzmzpgTQnbyIFL6bLghYnpxx6zTRKrghBiazueErCsqNWeAUevbZDH7Kt1zCTNMvSC0ucMwrbO9Q89WLlNFbi0oM45KrESv2AuJHnqnVBLjKHXVQmOIAABCEDgkxXwbkiie4r1UkXWbcHSmF1ztCJTodhc/s5pO1W7L1au/7WLyRnM9yJlKHO+OFW7N1q+9jIzkyH4Ehu/naVUbqlgQgPzR/cW6/0j9jxkvo1nKERYiuPd7g/CkETIUMWW0NAtFfYJlaE/M5ULs24xNTM1BfGaS3cX6+XqXfenyAzNc6/M9WzgUro/tbmcjUhMf2t2qqQrTr9xzBfZ2k+mynXHmDXAjxSSxBvuag97RPeXrJEvKmCPmd7KVp7vcM5gTRsUJsE9P6IN/PIcd5FbSJp16N1LnzOIoM0j5ZuoYN4nzNZWtEziDEn8i/m9E3y++JcR4rjwqftZPIMABCAAgU9SwLshiby7sk4asKmcndcR+NlamQ0/R/m/xx66vFYW8f0DR76Rx+2vd24wshgPxstXl/RNC0nsF19g7PLVaxx/q5IXLpAZSplJHGbGxEMh7iFp+P8Kvra/PT3rV1c7p4ckMvFgTzT19eVemtB91zYGR+6+z04rCWsiU49yI2VrSvoszPeyh+a5KnI/Ygs7YOT6PvVwT4TcUMZNX9k6zqbJkwtffrSQ5EbkbDiTVKc6H1zIy9Qv1cRERkRGKOUSzSG2pUwDY/NcgzNtUJjZNOPBeCq9pJsph/njh6TZh9699LmCuA3jc2I1HdPJlhTyfkk3UZFJOfckeerdtJAkcmGzo1d4gAAEIACBT1nAyyFpqnZfjETzYyP3hc+jtLYWCb7CyKB7SOL/gt1jSGKK8Y/ZVmz/BRr7M7SqqjtN3cwsB/Pl6qEQ95A0YbpdfJ79u3DlkauNIiGJWJ8d1gauPNdh7bm0lko46NigZI8NT1zdnHqYGylLL+mfmqF5rorcjwTNZkJSgOEGt117xpBUlR0i2JPEFC382udV4LHhND1QlRMZlLj9twet5nEbYefGeCGJ7ypSxcTD3CjFxmt9XEZyC0nvN/TTxtEjiNswdtlDku4ob9/9ROXWYHtImqF37lriFyIkuX9k8QwCEIDApyng5ZBExh/siZJEbL89beMNIWOVWUpFBn+57cm+WPnKC52O5TZP+Yb9Esuu4pbwRm9uUQQbSgdFxocXBthXeUnLHhxcpYi8m9lVI/LrNtvf59Ko5Sdri1dRrlkKZgEqYP0fA1wxdOf5lbJwZlJshuZxFwsfBc32mAmI7fXxFMfKG1sG3XVhpTTIfeM284JAjB8ePTeceZN8/R/cgqel+ZBGOktIcnGO3slRh26p4N4smEl6v6Gfe0gSQg6XGijltspR7jzdee5LqX25bYbeuWuJX4iQxJniEQIQgMCnLODtkERsndc3qSSK1H2lT/vsu3Zto10t7cwUw9jjffFBi/P+MrN7W4afntIrQzdetS/QCIICu3rjWG6zGA/EyZYVmRx7gMnog9xYeXxOWbt9QYoe7TA+s99peoZCiLAUsUEWDUmENl/9Rpmk01JpZ/7mduUwWeMzuc6xe9zaXZkT6x+7r5aZ/fHYPHqg5vBGw+Ea12yLow2CZnsOSWS0MksZmHayhZ1lsvbW5C6S+omEJGFfeRV4bjgzCShdfPgpW/ZYy0VDpL8k0bXcJphJcq/iXcWWUHXOHWc6EYak9xr6fx6S6L7yzWFU2jH7Dnib+f4+rdSxcXuG3rl3RfxChCSx/15wDgIQgMCnJuD1kEQImWgt26ePCvh8gSw4bKGS8l8gUX13l50IGntZkp2spNQabWIkFRix6vA97ndwvO9xlpw/CWRpOb86TEpFaRcn77rJfBGPvijJ1iqkQaqY2MjQIP+AmFzmR+bTvlz5SYsQt1LEh1U8JBEyUp2j+jyAt+GGnZtZlJWfmagK12g16kA5cyMC9jdVnptnfcncAkB75LnILQD4s2gzhCQy1XLREC2Xh8VrtfHq8JTcU7lLFNNnktz7OiqYSZJ7aLi1/UpmjFyu0izWxoYv2lpSdiBJ6zEk8avY+b+SbxRRuQ+5BUIWl78niTkx96GfNo4zgQgGku6uzktRyhTRSdqE8IiUH87s1YXaf93muXf8ruy6OSp6IUKSABpPIQABCHySAr4QkuxwE+b2Z8YntXXNpq53rr07zM0ke1ubmXsmit5M0gM6PdL5vL6uqdXMLboRMmlua66rrWsydY85N8J4eDd3WqQU7qUZH0fvfqtWbipj7zlgv5DJdMzWK/aejPXN7f38HrKXiDVvvPvVq263KDFjtR5etAy+eVpf12Dq4bZ2i17noa+zNHyqr62pzviMu5+laMnOkx6qcL4+7eAfDf20UmY9MdFraqhvaOmZdjdMz70TdMXzhbNWjgsgAAEIQMB3BXwnJPmu0Xu2zNZxMV0Rs8d+KybHe4UTX+9ZpPcu/2Qb7j0y1AwBCEAAAv8VAYSkjzeStje3TxTk71wVExS1rZz9+Zyz7E82a3yyDXfS4wACEIAABCDwDwUQkv4hnMjbbN0PigsLCs+UNThvNM1dNd5Y8uOJavt2ce7cJ/H4yTb8k9BFIyEAAQhAwKcFEJJ8enjQOAhAAAIQgAAEvCWAkOQtedQLAQhAAAIQgIBPCyAk+fTwoHEQgAAEIAABCHhLACHJW/KoFwIQgAAEIAABnxZASPLp4UHjIAABCEAAAhDwlgBCkrfkUS8EIAABCEAAAj4tgJDk08ODxkEAAhCAAAQg4C0BhCRvyaNeCEAAAhCAAAR8WgAhyaeHB42DAAQgAAEIQMBbAghJ3pJHvRCAAAQgAAEI+LQAQpJPDw8aBwEIQAACEICAtwQQkrwlj3ohAAEIQAACEPBpAYQknx4eNA4CEIAABCAAAW8JICR5Sx71QgACEIAABCDg0wIIST49PGgcBCAAAQhAAALeEkBI8pY86oUABCAAAQhAwKcFEJJ8enjQOAhAAAIQgAAEvCWAkOQtedQLAQhAAAIQgIBPCyAk+fTwoHEQgAAEIAABCHhLwKdCEt3fWH2vfXRWi8muZ7WvzLTrOlvXo6t/1HbaXGdwBAEIQAACEIAABD5IwHdCkrW7KjeZUi7/6X4fTeihxspqkyAuTTYVrUn/pXHM1nHmi8CNpRN0d+XOFesvtFjo/svrgrQ/P7d+EAXeDAEIQAACEIAABFwCvhGS6EHj6fVRYbrdZa8n2LaNNZ9bF6nQZF5oGOBNGE21nP5SmfRjfevpLwI3Xnv1q1616PvqXpqMVW1XxfxQO+XqFo4gAAEIQAACEIDAhwl4PyRZWsv26iNl0nD9nsKio4UFh/Lz9u7Z9d2OrasTgvw+848xnG0YZIPShLntefO9yltPmu8eXCLXHzc+uV1Z09zWOz56J0clUS3dYOD+Nuff7P4wFrwbAhCAAAQgAIH5LuD9kGR7c2Vn+teGzKwdO3fl6OPUqTk/nz7/W8mV6+U3q+5Wl+Su1P/4aIgmxPb6YqYuOTk5WRurlHzmR0VpmSe6jF9rL28IifjmlytXr169emmPzj/8m6LqV8OEjHe9fNk1Pt8HGP2HAAQgAAEIQOCfCXg3JE121N2qdP79eW5LjFS1/tgN5xnnwa2HrcPsdNKY6Ur2ooVUgCQ2Lefw3S4rGTfmL5IsiN7LLrYxu5UC9MU9NCHWF4XJEknS4Wf/zAXvggAEIAABCEBgngt4NyQN3S34Zh37tzYtLshPEq5L557GBi4I1nxlf7Zu3Ybc0o5J85NzWVpVwrb//V/RioAvcwv04ZHrfinaEqvVaai1l/poQqbu7VSrd9ZMEkLogZojBsORmv55PsDoPgQgAAEIQAAC/0zAuyHJ0eaJ1zd2JYdqcso7LIRYeo2Xiy7cf1W9R6tO3X/rDZN4mL93d3clL9n+W9PgxJDp96263OqJydfX9x+4/rSru75Aq/727gSxmo7pgtIv8W8O4HgzHiAAAQhAAAIQgMD7CXg7JNn6jMU7FivVq395bB7trL2Ulx6rjPwq9/f6XivdV3tstVq5KKPwz5eD7C2QmAU3y4tCnTL9d7d7Ik3e3xUZuev+2JszaYEpx1/jdknv9xnA1RCAAAQgAAEIiAh4NSQNPy5YpgzWZBw69cu+zcujgpWaNbvO1nSMT3XX/rb7yyUZVzos/cbfvktZKJXH7664khUilUg+/+yzzyXc3+eStLMdNkLG7++KDN34056kgNSTyEgiw4xTEIAABCAAAQi8r8D/A1qn8iWDIYIeAAAAAElFTkSuQmCC;" vertex="1" parent="1">
          <mxGeometry x="-700" y="1520" width="550.59" height="180" as="geometry" />
        </mxCell>
        <mxCell id="mYZ1RcpmayhiG7XBKgf2-52" value="系统中没存合同id 调用接口的时候使用bizId 也就是orderId" style="text;html=1;align=center;verticalAlign=middle;whiteSpace=wrap;rounded=0;fontFamily=Architects Daughter;fontSource=https%3A%2F%2Ffonts.googleapis.com%2Fcss%3Ffamily%3DArchitects%2BDaughter;" vertex="1" parent="1">
          <mxGeometry x="-760" y="1210" width="170" height="80" as="geometry" />
        </mxCell>
      </root>
    </mxGraphModel>
  </diagram>
</mxfile>
